<svg width="300" height="390" viewBox="0 0 300 390" fill="none" xmlns="http://www.w3.org/2000/svg">
<g clip-path="url(#clip0_35_2407)">
<path d="M109.567 64.5194C97.9962 71.1979 88.6126 87.4477 88.6514 100.746L89.428 374.637C89.4668 387.936 98.9086 393.32 110.48 386.641L202.672 333.414C214.242 326.735 223.626 310.479 223.587 297.18L222.811 23.29C222.772 9.99117 213.33 4.61341 201.759 11.2919L109.567 64.5194ZM94.0357 371.971L93.2591 98.0803C93.2267 87.6936 100.539 75.0355 109.58 69.8195L201.772 16.592C210.813 11.3761 218.164 15.5631 218.196 25.9497L218.973 299.84C219.005 310.233 211.693 322.891 202.659 328.107L110.467 381.335C101.42 386.557 94.068 382.364 94.0357 371.971Z" fill="url(#paint0_linear_35_2407)"/>
<path d="M109.58 69.8198C100.533 75.0422 93.2263 87.7003 93.2587 98.0805L94.0353 371.971C94.0676 382.364 101.419 386.557 110.466 381.335L202.658 328.107C211.699 322.891 219.005 310.233 218.973 299.84L218.196 25.95C218.164 15.5633 210.812 11.3698 201.772 16.5923L109.58 69.8198Z" fill="url(#paint1_linear_35_2407)"/>
<path d="M75.5724 92.1914C75.5724 92.1331 75.5724 92.0684 75.5789 92.0102C75.5789 91.8807 75.5918 91.7578 75.5983 91.6284C75.6048 91.4795 75.6112 91.3307 75.6177 91.1818C75.6242 91.0653 75.6371 90.9489 75.6436 90.8324C75.6565 90.6965 75.663 90.5606 75.6759 90.4247C75.6824 90.3405 75.6889 90.2499 75.6954 90.1658C75.7148 89.9717 75.7407 89.7711 75.7601 89.5769C75.773 89.4669 75.786 89.3569 75.7989 89.2469C75.7989 89.2145 75.8054 89.1757 75.8119 89.1433C75.8572 88.7939 75.9089 88.4444 75.9607 88.095C75.9607 88.082 75.9607 88.0755 75.9607 88.0626C75.9672 88.0044 75.9801 87.9461 75.9931 87.8879C76.0384 87.6031 76.0836 87.3184 76.1419 87.0336C76.1548 86.9754 76.1678 86.9236 76.1743 86.8654C76.2001 86.723 76.2325 86.5807 76.2584 86.4383C76.2907 86.27 76.3231 86.1082 76.3619 85.94C76.3813 85.8429 76.4072 85.7458 76.4331 85.6423C76.4655 85.487 76.5043 85.3381 76.5431 85.1828C76.569 85.0663 76.5949 84.9563 76.6208 84.8398C76.6596 84.6975 76.6984 84.5486 76.7373 84.4062C76.7761 84.2509 76.8149 84.1021 76.8602 83.9468C76.8796 83.8756 76.899 83.8044 76.9185 83.7267C76.9767 83.5197 77.0414 83.3061 77.0997 83.099C77.1385 82.9761 77.1709 82.8466 77.2097 82.7237C77.2226 82.6913 77.2291 82.6525 77.242 82.6201C77.3521 82.2577 77.4686 81.8953 77.5915 81.5329C77.5915 81.5265 77.5915 81.52 77.598 81.5135C77.6174 81.4618 77.6303 81.4165 77.6497 81.3647C77.7533 81.0605 77.8568 80.7628 77.9668 80.4587C77.9863 80.4069 78.0057 80.3551 78.0251 80.2969C78.0704 80.1739 78.1157 80.051 78.161 79.928C78.2257 79.7598 78.2839 79.5915 78.3486 79.4233C78.394 79.3132 78.4392 79.1968 78.4845 79.0867C78.5363 78.9508 78.5946 78.8214 78.6463 78.6855C78.6852 78.5884 78.724 78.4978 78.7628 78.4008C78.847 78.2002 78.9311 78.006 79.0152 77.8119C79.0605 77.7083 79.1058 77.6048 79.1446 77.5012C79.1576 77.4689 79.177 77.4301 79.1899 77.3977C79.3388 77.0547 79.4941 76.7182 79.6559 76.3817C79.6624 76.3687 79.6688 76.3493 79.6753 76.3364C79.7206 76.2328 79.7724 76.1358 79.8241 76.0322C79.9471 75.7798 80.0636 75.5275 80.193 75.2751C80.2124 75.2362 80.2383 75.1909 80.2577 75.1521C80.3613 74.9386 80.4778 74.7315 80.5813 74.5179C80.6719 74.3497 80.756 74.1814 80.8401 74.0131C80.8596 73.9808 80.8725 73.9549 80.8919 73.9225C81.1831 73.3789 81.4873 72.8418 81.7979 72.3047C81.8238 72.2594 81.8497 72.2141 81.8756 72.1688C81.9079 72.117 81.9403 72.0717 81.9727 72.0199C82.4192 71.2628 82.8851 70.5186 83.3705 69.7938C83.3964 69.7549 83.4223 69.7096 83.4481 69.6708C83.4934 69.6061 83.5387 69.5414 83.584 69.4767C83.9723 68.9072 84.3606 68.3377 84.7683 67.7876C84.7683 67.7876 84.7683 67.7876 84.7683 67.7812C84.8071 67.7294 84.846 67.6841 84.8848 67.6323C85.1372 67.2893 85.396 66.9528 85.6549 66.6228C85.6678 66.6034 85.6873 66.5839 85.7002 66.5645C85.9008 66.3057 86.1144 66.0533 86.3215 65.8009C86.3797 65.7297 86.4379 65.6585 86.4962 65.5809C86.4962 65.5809 86.5027 65.5679 86.5091 65.5615C86.7745 65.2379 87.0463 64.9273 87.3181 64.6166C87.331 64.6037 87.3439 64.5907 87.3569 64.5778C87.4345 64.4872 87.5187 64.4031 87.5963 64.3125C87.7775 64.1119 87.9523 63.9112 88.1399 63.7106C88.1723 63.6783 88.2046 63.6459 88.237 63.6136C88.3535 63.4841 88.4764 63.3612 88.5929 63.2382C88.7288 63.0958 88.8647 62.9535 89.0006 62.8111C89.0459 62.7658 89.0977 62.714 89.143 62.6687C89.2724 62.5393 89.4019 62.4099 89.5378 62.2804C89.6542 62.164 89.7707 62.0475 89.8872 61.9375C89.9519 61.8792 90.0166 61.821 90.0814 61.7627C90.2237 61.6268 90.3661 61.4974 90.5085 61.368C90.612 61.2709 90.7091 61.1738 90.8126 61.0832C90.8903 61.012 90.9679 60.9473 91.0456 60.8826C91.188 60.7532 91.3303 60.6302 91.4727 60.5073C91.5633 60.4296 91.6539 60.3455 91.7445 60.2743C91.8351 60.1966 91.9322 60.119 92.0293 60.0413C92.1716 59.9248 92.3075 59.8084 92.4499 59.6983C92.5275 59.6401 92.5987 59.5754 92.6764 59.5107C92.7929 59.4201 92.9158 59.3295 93.0323 59.2389C93.1618 59.1353 93.2912 59.0383 93.4271 58.9412C93.4853 58.9024 93.5371 58.8571 93.5953 58.8118C93.7571 58.6953 93.9189 58.5788 94.0807 58.4688C94.1907 58.3911 94.3007 58.307 94.4107 58.2358C94.4431 58.2164 94.469 58.1905 94.5013 58.1711C94.7925 57.9705 95.0902 57.7763 95.3879 57.5822C95.4073 57.5692 95.4203 57.5628 95.4397 57.5498C95.7115 57.3751 95.9898 57.2068 96.268 57.0451C96.3392 57.0062 96.4039 56.9674 96.4751 56.9286L188.661 3.68166C188.881 3.55223 189.107 3.42928 189.327 3.31279C189.411 3.26749 189.495 3.22866 189.58 3.18336C189.69 3.12512 189.806 3.06688 189.916 3.00864C190.007 2.96334 190.091 2.91804 190.181 2.87274C190.324 2.80155 190.466 2.73684 190.609 2.67212C190.706 2.62682 190.809 2.57505 190.906 2.52975C190.945 2.51033 190.99 2.49092 191.029 2.47151C191.307 2.34855 191.586 2.22559 191.864 2.11558C191.87 2.11558 191.883 2.10911 191.89 2.10264C192.162 1.99262 192.433 1.88908 192.699 1.79848C192.738 1.78554 192.776 1.77259 192.815 1.75965C192.919 1.72729 193.016 1.69494 193.119 1.66258C193.262 1.61728 193.398 1.56551 193.54 1.52668C193.611 1.50726 193.682 1.48785 193.76 1.46844C193.883 1.43608 194.006 1.39725 194.129 1.36489C194.22 1.33901 194.317 1.31312 194.407 1.28724C194.511 1.26135 194.608 1.24194 194.711 1.22252C194.834 1.19664 194.957 1.16428 195.074 1.13839C195.139 1.12545 195.203 1.10604 195.261 1.09309C195.378 1.06721 195.494 1.05426 195.611 1.03485C195.753 1.00896 195.896 0.983078 196.032 0.963664C196.077 0.957192 196.129 0.94425 196.174 0.937778C196.297 0.924835 196.413 0.911892 196.53 0.89895C196.679 0.879535 196.828 0.866592 196.976 0.85365C197.022 0.85365 197.061 0.840707 197.106 0.840707C197.209 0.834235 197.306 0.840707 197.41 0.827764C197.591 0.821292 197.772 0.80835 197.947 0.80835C197.992 0.80835 198.044 0.80835 198.089 0.80835C198.167 0.80835 198.238 0.814821 198.316 0.821292C198.536 0.821292 198.763 0.834235 198.976 0.85365C199.041 0.85365 199.105 0.85365 199.17 0.860121C199.222 0.860121 199.267 0.873064 199.319 0.879535C199.649 0.911892 199.973 0.957192 200.29 1.02191C200.322 1.02191 200.354 1.02838 200.38 1.03485C200.38 1.03485 200.393 1.03485 200.4 1.03485C200.859 1.12545 201.299 1.25488 201.733 1.40372C201.772 1.41666 201.811 1.42314 201.849 1.43608C201.882 1.44902 201.908 1.46196 201.94 1.47491C202.128 1.54609 202.315 1.62375 202.497 1.70141C202.587 1.74024 202.678 1.77259 202.768 1.81789C203.034 1.94085 203.299 2.07675 203.551 2.22559L216.643 9.83599C216.391 9.68715 216.125 9.55125 215.86 9.42829C215.769 9.38946 215.679 9.35063 215.588 9.3118C215.407 9.23415 215.219 9.15649 215.032 9.08531C214.96 9.05942 214.889 9.04 214.818 9.01412C214.385 8.86528 213.944 8.74232 213.485 8.64525C213.446 8.63878 213.414 8.63231 213.375 8.62583C213.058 8.56759 212.734 8.52229 212.404 8.48346C212.288 8.47052 212.178 8.46405 212.061 8.45111C211.841 8.43169 211.621 8.42522 211.401 8.41875C211.278 8.41875 211.155 8.41228 211.026 8.41875C210.851 8.41875 210.67 8.42522 210.489 8.43816C210.346 8.44463 210.204 8.45111 210.055 8.46405C209.906 8.47699 209.757 8.49641 209.609 8.50935C209.44 8.52876 209.279 8.54818 209.11 8.56759C208.968 8.58701 208.832 8.61289 208.69 8.63878C208.508 8.67113 208.327 8.70349 208.146 8.73585C208.023 8.76173 207.907 8.78762 207.784 8.81998C207.59 8.86528 207.395 8.91058 207.201 8.96235C207.078 8.99471 206.955 9.02706 206.832 9.06589C206.619 9.12413 206.405 9.19532 206.192 9.26651C206.088 9.29886 205.991 9.33122 205.888 9.36358C205.583 9.46712 205.273 9.58361 204.962 9.70656C204.949 9.70656 204.943 9.71303 204.93 9.71951C204.613 9.84893 204.289 9.98483 203.966 10.1337C203.868 10.179 203.765 10.2243 203.668 10.276C203.441 10.3861 203.208 10.4961 202.975 10.6126C202.865 10.6708 202.749 10.729 202.639 10.7873C202.335 10.9491 202.031 11.1109 201.72 11.2921L109.528 64.5196C109.185 64.7202 108.842 64.9273 108.499 65.1408C108.48 65.1538 108.46 65.1602 108.447 65.1732C108.117 65.3803 107.787 65.6003 107.464 65.8268C107.354 65.9044 107.237 65.9886 107.127 66.0662C106.907 66.2215 106.694 66.3769 106.48 66.5386C106.344 66.6357 106.215 66.7393 106.085 66.8428C105.891 66.9916 105.697 67.1405 105.503 67.2958C105.36 67.4123 105.218 67.5288 105.076 67.6453C104.894 67.8006 104.707 67.9494 104.526 68.1112C104.383 68.2342 104.241 68.3636 104.092 68.4865C103.911 68.6483 103.73 68.8101 103.555 68.9719C103.412 69.1013 103.27 69.2308 103.128 69.3667C102.947 69.5349 102.765 69.7096 102.591 69.8908C102.461 70.0203 102.325 70.1497 102.196 70.2791C102.008 70.4668 101.827 70.6545 101.646 70.8486C101.529 70.9716 101.406 71.0945 101.29 71.224C101.076 71.4505 100.869 71.6834 100.656 71.9164C100.572 72.007 100.494 72.0976 100.41 72.1882C100.119 72.5182 99.8338 72.8548 99.549 73.1913C99.4908 73.2625 99.4326 73.3401 99.3679 73.4113C99.1478 73.6831 98.9213 73.9549 98.7078 74.2332C98.4489 74.5697 98.1901 74.9062 97.9377 75.2492C97.8988 75.3009 97.86 75.3527 97.8212 75.4045C97.4135 75.9546 97.0187 76.5241 96.6369 77.0935C96.5657 77.1971 96.4945 77.3071 96.4233 77.4106C95.938 78.1419 95.4721 78.8861 95.0255 79.6368C94.9673 79.7339 94.909 79.8245 94.8573 79.9216C94.5466 80.4587 94.2425 80.9958 93.9513 81.5394C93.8477 81.7336 93.7442 81.9342 93.6406 82.1348C93.5306 82.3483 93.4206 82.5554 93.3106 82.769C93.1617 83.0602 93.0194 83.3579 92.877 83.6491C92.8252 83.7526 92.7799 83.8497 92.7282 83.9532C92.547 84.3415 92.3722 84.7298 92.1975 85.1181C92.1522 85.2216 92.1069 85.3252 92.0681 85.4223C91.9451 85.7135 91.8222 86.0047 91.6992 86.2959C91.6474 86.4318 91.5892 86.5612 91.5374 86.6971C91.4274 86.9754 91.3174 87.2537 91.2139 87.5384C91.1685 87.6614 91.1233 87.7843 91.078 87.9008C90.9485 88.2567 90.8256 88.6127 90.7026 88.9621C90.6832 89.0139 90.6702 89.0592 90.6508 89.111C90.5149 89.5122 90.3855 89.9134 90.269 90.3211C90.2302 90.4506 90.1914 90.58 90.1525 90.7094C90.0684 90.9877 89.9907 91.266 89.9131 91.5442C89.8678 91.6995 89.829 91.8549 89.7901 92.0102C89.7254 92.269 89.6607 92.5279 89.596 92.7803C89.5572 92.9356 89.5248 93.0909 89.486 93.2462C89.4277 93.5116 89.3695 93.7769 89.3177 94.0357C89.2854 94.1781 89.2595 94.3205 89.2336 94.4629C89.1689 94.7994 89.1106 95.1359 89.0524 95.4724C89.0395 95.5371 89.033 95.5953 89.0201 95.6601C88.9553 96.0548 88.9036 96.4496 88.8518 96.8443C88.8388 96.9543 88.8259 97.0644 88.813 97.1744C88.7806 97.4591 88.7482 97.7439 88.7288 98.0286C88.7159 98.1645 88.7094 98.3004 88.6965 98.4298C88.6771 98.6952 88.6576 98.9605 88.6447 99.2258C88.6447 99.3552 88.6317 99.4847 88.6253 99.6141C88.6123 99.9894 88.6059 100.365 88.6059 100.74L89.3824 374.63C89.3824 375.019 89.3954 375.401 89.4083 375.782C89.4083 375.892 89.4213 375.996 89.4277 376.099C89.4407 376.358 89.4601 376.611 89.4795 376.863C89.4925 377.012 89.5119 377.154 89.5248 377.297C89.5507 377.51 89.5701 377.724 89.6025 377.931C89.6219 378.086 89.6478 378.235 89.6736 378.39C89.706 378.584 89.7384 378.772 89.7707 378.96C89.8031 379.128 89.8354 379.296 89.8743 379.458C89.9131 379.626 89.9519 379.795 89.9908 379.956C90.0361 380.151 90.0878 380.338 90.1396 380.532C90.1784 380.681 90.2237 380.824 90.269 380.972C90.3402 381.199 90.4114 381.419 90.4891 381.632C90.5344 381.749 90.5732 381.872 90.6185 381.988C90.7608 382.357 90.9032 382.713 91.065 383.056C91.0779 383.089 91.0974 383.121 91.1168 383.153C91.3368 383.606 91.5763 384.04 91.8286 384.448C91.8481 384.48 91.8675 384.519 91.8933 384.558C92.1069 384.894 92.3399 385.205 92.5793 385.509C92.6376 385.58 92.6958 385.651 92.7541 385.722C92.987 386.001 93.2265 386.266 93.4789 386.518C93.4983 386.538 93.5177 386.564 93.5371 386.583C93.8089 386.842 94.0936 387.088 94.3848 387.314C94.456 387.373 94.5272 387.424 94.5984 387.476C94.8961 387.696 95.2002 387.91 95.5238 388.091L82.4321 380.481C82.115 380.293 81.8044 380.086 81.5067 379.866C81.4355 379.814 81.3643 379.756 81.2932 379.704C81.002 379.478 80.7172 379.238 80.4454 378.973C80.426 378.953 80.4066 378.927 80.3807 378.908C80.1283 378.662 79.8889 378.397 79.6624 378.118C79.6041 378.047 79.5459 377.976 79.4876 377.905C79.2482 377.601 79.0217 377.29 78.8017 376.954C78.7952 376.941 78.7887 376.934 78.7822 376.921C78.7693 376.895 78.7563 376.869 78.7369 376.844C78.4781 376.436 78.2386 376.002 78.0251 375.549C78.0121 375.53 77.9992 375.51 77.9927 375.485C77.9927 375.472 77.9863 375.465 77.9798 375.452C77.818 375.109 77.6692 374.753 77.5333 374.384C77.5203 374.352 77.5074 374.32 77.4944 374.287C77.4621 374.203 77.4362 374.113 77.4103 374.029C77.3326 373.809 77.2614 373.595 77.1903 373.368C77.1708 373.304 77.1514 373.252 77.132 373.187C77.1061 373.103 77.0867 373.013 77.0673 372.928C77.0155 372.741 76.9638 372.547 76.9185 372.359C76.899 372.275 76.8732 372.204 76.8537 372.119C76.8343 372.035 76.8214 371.945 76.802 371.861C76.7696 371.699 76.7308 371.531 76.7049 371.362C76.6855 371.272 76.6661 371.188 76.6531 371.097C76.6337 370.993 76.6208 370.89 76.6078 370.786C76.582 370.638 76.5625 370.489 76.5431 370.333C76.5302 370.256 76.5172 370.178 76.5043 370.094C76.4849 369.964 76.4784 369.829 76.4655 369.693C76.4525 369.55 76.4331 369.408 76.4202 369.259C76.4202 369.201 76.4072 369.143 76.4008 369.078C76.3878 368.884 76.3749 368.683 76.3619 368.489C76.3619 368.385 76.349 368.282 76.3425 368.172C76.3425 368.146 76.3425 368.12 76.3425 368.094C76.3296 367.764 76.3231 367.428 76.3166 367.085C76.3166 367.065 76.3166 367.046 76.3166 367.026L75.5401 93.1362C75.5401 92.8256 75.54 92.5085 75.553 92.1914H75.5724Z" fill="white"/>
<path d="M74.8801 92.735L75.6632 366.625V366.683C75.6632 367.026 75.6696 367.363 75.6826 367.693C75.6826 367.719 75.6891 367.751 75.6891 367.777C75.6891 367.881 75.6955 367.984 75.7085 368.094C75.715 368.288 75.7279 368.483 75.7473 368.677C75.7473 368.741 75.7538 368.8 75.7667 368.851C75.7732 369 75.7926 369.136 75.812 369.285C75.8185 369.414 75.8315 369.557 75.8509 369.686C75.8573 369.757 75.8767 369.842 75.8897 369.919C75.9091 370.074 75.935 370.223 75.9544 370.372C75.9738 370.476 75.9803 370.579 75.9997 370.676C76.0191 370.767 76.0385 370.851 76.0579 370.948C76.0838 371.116 76.1227 371.285 76.1615 371.44C76.1809 371.531 76.1874 371.615 76.2068 371.712C76.2262 371.783 76.2521 371.867 76.2715 371.945C76.3168 372.139 76.375 372.333 76.4203 372.521C76.4462 372.605 76.4656 372.695 76.485 372.78C76.5045 372.838 76.5303 372.902 76.5498 372.954C76.6145 373.187 76.6922 373.401 76.7633 373.614C76.8022 373.705 76.8216 373.789 76.8539 373.886C76.8604 373.912 76.8798 373.944 76.8927 373.977C77.0351 374.339 77.1775 374.702 77.3458 375.045C77.3458 375.051 77.3457 375.064 77.3522 375.07C77.3587 375.09 77.3781 375.109 77.3911 375.135C77.6046 375.588 77.8441 376.015 78.1094 376.429C78.1159 376.455 78.1353 376.488 78.1482 376.514C78.1547 376.52 78.1676 376.533 78.1741 376.539C78.3876 376.876 78.6077 377.187 78.8536 377.484C78.9118 377.555 78.9766 377.633 79.0283 377.698C79.2613 377.976 79.4943 378.248 79.7531 378.494L79.8114 378.552C80.0832 378.824 80.3679 379.057 80.6591 379.283C80.7303 379.342 80.8015 379.393 80.8727 379.439C81.1704 379.659 81.4745 379.872 81.8046 380.06L94.8963 387.67C94.5792 387.483 94.275 387.269 93.9773 387.056C93.9061 386.997 93.8285 386.946 93.7638 386.887C93.4661 386.667 93.1878 386.421 92.916 386.162C92.8901 386.137 92.8707 386.117 92.8513 386.098C92.5989 385.845 92.3595 385.58 92.133 385.302C92.0683 385.237 92.01 385.159 91.9582 385.095C91.7188 384.791 91.4858 384.473 91.2723 384.137C91.2528 384.098 91.2334 384.066 91.2075 384.033C90.9552 383.626 90.7157 383.186 90.4892 382.733C90.4828 382.707 90.4633 382.668 90.4439 382.642C90.2886 382.299 90.1398 381.943 89.9974 381.574C89.9521 381.451 89.9133 381.335 89.868 381.218C89.7968 380.998 89.7191 380.785 89.6479 380.552C89.6091 380.409 89.5638 380.267 89.525 380.118C89.4667 379.93 89.4214 379.736 89.3761 379.542C89.3308 379.387 89.292 379.219 89.2532 379.05C89.2144 378.882 89.1885 378.714 89.1496 378.546C89.1237 378.351 89.0849 378.164 89.059 377.97C89.0332 377.821 89.0137 377.672 88.9943 377.517C88.9555 377.31 88.9361 377.096 88.9102 376.882C88.9037 376.74 88.8843 376.598 88.8649 376.449C88.8455 376.196 88.8261 375.944 88.8196 375.685C88.8131 375.582 88.8002 375.472 88.7937 375.368C88.7872 374.986 88.7678 374.604 88.7678 374.216L87.9977 100.326C87.9977 99.9571 88.0042 99.5817 88.0171 99.2129C88.0236 99.0834 88.0236 98.954 88.0366 98.8246C88.043 98.5657 88.0624 98.2939 88.0819 98.0286C88.0883 97.8992 88.1013 97.7568 88.1207 97.6274C88.1401 97.3426 88.1789 97.0579 88.2048 96.7731C88.2113 96.6631 88.2307 96.5596 88.2436 96.4496C88.2889 96.0483 88.3472 95.6601 88.4119 95.2588C88.4184 95.1941 88.4313 95.1359 88.4378 95.0712C88.496 94.7346 88.5607 94.4046 88.6255 94.0616C88.6513 93.9192 88.6837 93.7833 88.7096 93.6345C88.7678 93.3756 88.8196 93.1168 88.8778 92.845C88.9167 92.6897 88.949 92.5408 88.9878 92.379C89.0526 92.1202 89.1173 91.8678 89.182 91.6089C89.2208 91.4536 89.2532 91.3048 89.3049 91.143C89.3761 90.8647 89.4603 90.5864 89.5379 90.3082C89.5832 90.1787 89.6091 90.0493 89.6609 89.9199C89.7838 89.5187 89.9133 89.111 90.0427 88.7097C90.0621 88.6644 90.0815 88.6191 90.1009 88.5609C90.211 88.205 90.3404 87.8555 90.4698 87.4996C90.5151 87.3766 90.5604 87.2601 90.6122 87.1372C90.7157 86.8524 90.8257 86.5677 90.9358 86.2894C90.9811 86.16 91.0393 86.0306 91.0911 85.8882C91.214 85.6035 91.3305 85.3058 91.4599 85.0146C91.4988 84.911 91.5441 84.8075 91.5894 84.7104C91.7576 84.3221 91.9324 83.9274 92.12 83.5391C92.1653 83.4355 92.2106 83.332 92.2689 83.2349C92.4112 82.9502 92.5471 82.6525 92.696 82.3548C92.806 82.1412 92.916 81.9342 93.0196 81.7206C93.026 81.7141 93.026 81.7012 93.026 81.6947C93.136 81.507 93.2331 81.3129 93.3302 81.1252C93.6149 80.5752 93.9255 80.038 94.2426 79.5074C94.3009 79.4038 94.3527 79.3132 94.4109 79.2226C94.8574 78.4719 95.3234 77.7148 95.8152 76.9965C95.8799 76.8864 95.9576 76.7829 96.0288 76.6794C96.4106 76.1034 96.8118 75.5339 97.2066 74.9903C97.2519 74.9321 97.2907 74.8868 97.3295 74.835C97.5819 74.492 97.8408 74.1555 98.0996 73.8255C98.3197 73.5472 98.5332 73.2754 98.7597 73.0101C98.8244 72.9389 98.8827 72.8612 98.9474 72.79C99.2257 72.447 99.5169 72.1105 99.8016 71.787C99.8857 71.6964 99.9699 71.6122 100.041 71.5152C100.255 71.2822 100.468 71.0492 100.675 70.8162C100.798 70.6868 100.915 70.5639 101.038 70.4474C101.225 70.2532 101.4 70.0656 101.588 69.8714C101.717 69.742 101.847 69.619 101.976 69.4896C102.164 69.3149 102.338 69.1337 102.513 68.9719C102.662 68.8295 102.798 68.7001 102.94 68.5707C103.115 68.4024 103.303 68.2471 103.477 68.0853C103.62 67.9559 103.762 67.8329 103.905 67.7035C104.092 67.5482 104.273 67.3993 104.461 67.2375C104.603 67.1275 104.739 67.0046 104.888 66.8946C105.076 66.7392 105.27 66.5904 105.464 66.4416C105.594 66.338 105.723 66.2345 105.865 66.1374C106.079 65.9821 106.292 65.8203 106.512 65.6715C106.622 65.5873 106.733 65.5032 106.849 65.432C107.173 65.212 107.496 64.9855 107.833 64.7719C107.852 64.7655 107.871 64.7525 107.891 64.746C108.227 64.5325 108.57 64.3189 108.913 64.1248L201.086 10.8973C201.39 10.7226 201.701 10.5543 201.998 10.3925C202.121 10.3278 202.231 10.2696 202.341 10.2178C202.574 10.0948 202.807 9.98481 203.027 9.8748C203.131 9.8295 203.234 9.7842 203.325 9.73243C203.649 9.59006 203.972 9.44769 204.289 9.32473C204.296 9.31826 204.309 9.31826 204.328 9.30532C204.632 9.18236 204.943 9.07234 205.247 8.9688C205.351 8.92997 205.454 8.90409 205.551 8.86526C205.765 8.79407 205.978 8.72289 206.185 8.67111C206.315 8.63229 206.438 8.59993 206.554 8.56757C206.748 8.50933 206.943 8.46403 207.137 8.41873C207.26 8.39284 207.376 8.36049 207.499 8.3346C207.687 8.29577 207.862 8.26989 208.036 8.244C208.185 8.21812 208.327 8.18576 208.463 8.17281C208.632 8.1534 208.8 8.13399 208.968 8.11457C209.117 8.09516 209.266 8.07574 209.415 8.06927C209.563 8.0628 209.699 8.04986 209.848 8.04339C210.023 8.03691 210.204 8.03691 210.379 8.02397C210.508 8.02397 210.631 8.03044 210.761 8.03044C210.981 8.03692 211.207 8.04986 211.421 8.05633C211.531 8.0628 211.654 8.07574 211.764 8.09516C212.087 8.12104 212.411 8.16634 212.741 8.23753C212.78 8.244 212.812 8.244 212.851 8.25694C213.304 8.34754 213.751 8.47697 214.178 8.61934C214.249 8.64523 214.32 8.66464 214.391 8.69053C214.579 8.75524 214.76 8.83937 214.948 8.91056C215.032 8.94939 215.122 8.98174 215.22 9.03351C215.478 9.15647 215.75 9.29237 216.003 9.44121L202.911 1.83082C202.652 1.68197 202.393 1.54607 202.121 1.42312C202.037 1.37782 201.947 1.33899 201.85 1.30016C201.662 1.22897 201.487 1.14484 201.293 1.08013C201.267 1.07366 201.235 1.05424 201.202 1.0413C201.164 1.02189 201.131 1.02189 201.079 1.00247C200.652 0.85363 200.206 0.730673 199.753 0.640073C199.746 0.640073 199.746 0.633601 199.733 0.633601C199.708 0.633601 199.669 0.62713 199.643 0.62713C199.326 0.562415 199.002 0.517115 198.666 0.484758C198.62 0.478287 198.575 0.465344 198.523 0.458873C198.459 0.458873 198.381 0.458873 198.316 0.452401C198.103 0.432987 197.883 0.426515 197.656 0.426515C197.585 0.426515 197.507 0.420044 197.423 0.420044H197.281C197.106 0.420044 196.918 0.426515 196.744 0.439458C196.64 0.44593 196.537 0.439458 196.439 0.44593C196.401 0.452401 196.355 0.452401 196.31 0.465344C196.161 0.471815 196.012 0.49123 195.863 0.510644C195.741 0.517115 195.631 0.530058 195.508 0.53653C195.462 0.543001 195.404 0.555944 195.359 0.562415C195.216 0.58183 195.08 0.607715 194.938 0.633601C194.815 0.653015 194.705 0.659487 194.582 0.691844C194.517 0.698315 194.453 0.71773 194.388 0.730673C194.265 0.756558 194.149 0.788915 194.026 0.814801C193.922 0.840687 193.819 0.860101 193.721 0.879515C193.631 0.905401 193.534 0.937758 193.443 0.963644C193.32 0.98953 193.204 1.02836 193.081 1.06719C193.01 1.0866 192.932 1.10602 192.861 1.12543C192.718 1.17073 192.582 1.21603 192.44 1.2678C192.337 1.29369 192.233 1.33252 192.136 1.37134C192.097 1.37782 192.065 1.39076 192.026 1.41017C191.754 1.50077 191.489 1.60432 191.217 1.70786C191.211 1.71433 191.198 1.71433 191.191 1.72727H191.185C190.906 1.83729 190.628 1.9473 190.35 2.0832C190.311 2.10262 190.266 2.12203 190.227 2.14144C190.123 2.18674 190.033 2.23204 189.929 2.28382C189.78 2.34853 189.644 2.41324 189.502 2.4909C189.411 2.5362 189.327 2.5815 189.23 2.63327L188.894 2.80153C188.81 2.84683 188.725 2.89213 188.641 2.9439C188.421 3.06686 188.195 3.18334 187.975 3.31277L95.7893 56.5403C95.7181 56.5791 95.6469 56.6115 95.5822 56.6503C95.304 56.8185 95.0257 56.9868 94.7474 57.1615C94.7409 57.168 94.7215 57.1809 94.7021 57.1874C94.7021 57.1874 94.7021 57.1939 94.6957 57.1939C94.398 57.3816 94.1132 57.5757 93.8155 57.7763C93.7896 57.7957 93.7508 57.8151 93.7249 57.841C93.6149 57.9122 93.5049 57.9963 93.3884 58.074C93.2331 58.197 93.0649 58.307 92.9031 58.417C92.8448 58.4623 92.7931 58.5076 92.7348 58.5464C92.6054 58.65 92.476 58.7535 92.3465 58.8441C92.2236 58.9347 92.1071 59.0318 91.9841 59.1224C91.9129 59.1806 91.8353 59.2453 91.7641 59.31C91.6217 59.4201 91.4794 59.5301 91.337 59.653C91.2464 59.7242 91.1493 59.8019 91.0587 59.886C90.9681 59.9572 90.871 60.0413 90.7869 60.119C90.6381 60.2419 90.5022 60.3714 90.3598 60.4878C90.2757 60.559 90.2045 60.6302 90.1268 60.6949C90.0168 60.7855 89.9197 60.8891 89.8227 60.9797C89.6738 61.1091 89.5379 61.2385 89.3956 61.368C89.3308 61.4327 89.2661 61.4909 89.2014 61.5556C89.0914 61.6656 88.9684 61.7757 88.8584 61.8986C88.729 62.0216 88.5996 62.151 88.4701 62.2804C88.4119 62.3257 88.3666 62.371 88.3213 62.4293C88.1789 62.5716 88.0495 62.7075 87.9136 62.8499C87.8036 62.9793 87.6806 63.1023 87.5577 63.2317C87.5188 63.2576 87.493 63.2964 87.4671 63.3353C87.2794 63.5294 87.1047 63.7365 86.917 63.9306C86.8458 64.0212 86.7617 64.1054 86.684 64.2024C86.6646 64.2089 86.6581 64.2219 86.6452 64.2413C86.3669 64.5454 86.0951 64.8625 85.8363 65.1861C85.8363 65.1861 85.8298 65.1926 85.8168 65.2055C85.7586 65.2702 85.7068 65.3479 85.6421 65.4191C85.435 65.6715 85.2215 65.9303 85.0209 66.1892C85.0144 66.2086 84.995 66.228 84.982 66.2474C84.7232 66.5839 84.4643 66.914 84.2119 67.257C84.1731 67.3023 84.1278 67.3476 84.089 67.4058C83.6813 67.9623 83.293 68.5318 82.8982 69.0948C82.8529 69.166 82.8076 69.2243 82.7559 69.289C82.7365 69.3343 82.7106 69.3731 82.6847 69.4184C82.1993 70.1432 81.7399 70.8874 81.2804 71.6446C81.2545 71.6899 81.2221 71.7352 81.1898 71.7934C81.1639 71.8387 81.1445 71.884 81.1186 71.9358C80.8015 72.4665 80.5038 73.0036 80.2061 73.5537C80.1996 73.5795 80.1803 73.6119 80.1608 73.6443C80.0702 73.8125 79.9861 73.9808 79.902 74.149C79.7919 74.3626 79.6819 74.5697 79.5654 74.7832C79.546 74.8285 79.5266 74.8544 79.5201 74.8932H79.5137C79.3843 75.165 79.2613 75.4109 79.1448 75.6633C79.0995 75.7669 79.0413 75.8704 78.996 75.9675C78.9895 75.9869 78.9895 75.9934 78.9765 76.0128C78.8212 76.3493 78.6595 76.6923 78.5106 77.0223C78.4912 77.0612 78.4847 77.0935 78.4653 77.1324C78.42 77.2359 78.3812 77.3394 78.3359 77.4365C78.2518 77.6307 78.1611 77.8248 78.0835 78.0189C78.0382 78.1225 78.0123 78.2131 77.9605 78.3037C77.9023 78.4331 77.857 78.5755 77.8052 78.7049C77.7599 78.8149 77.7146 78.9249 77.6629 79.0414C77.5981 79.2097 77.5399 79.3779 77.4752 79.5462C77.4299 79.6692 77.3846 79.7986 77.3328 79.9151C77.3134 79.9733 77.294 80.0186 77.2746 80.0704C77.1646 80.3681 77.061 80.6722 76.9575 80.9699C76.938 81.0282 76.9186 81.0735 76.8992 81.1188V81.1382C76.7763 81.5006 76.6598 81.863 76.5433 82.2254C76.5368 82.2642 76.5239 82.2966 76.5174 82.3289C76.4786 82.4583 76.4462 82.5813 76.4074 82.7107C76.3427 82.9178 76.2844 83.1314 76.2197 83.3449C76.2003 83.4096 76.1809 83.4873 76.1615 83.5585C76.1227 83.7073 76.0773 83.8626 76.0385 84.0115C75.9997 84.1603 75.9673 84.3092 75.9285 84.4451C75.9026 84.568 75.8703 84.678 75.8444 84.788C75.8056 84.9434 75.7732 85.0922 75.7408 85.254C75.715 85.3446 75.6955 85.4481 75.6697 85.5387C75.6308 85.707 75.6049 85.8753 75.5661 86.0435C75.5402 86.1924 75.5079 86.3283 75.482 86.4706C75.4755 86.5289 75.4626 86.5806 75.4432 86.6389C75.3979 86.9236 75.3526 87.2084 75.3008 87.4931C75.2943 87.5514 75.2749 87.6031 75.262 87.6678V87.6937C75.2037 88.0497 75.1519 88.3991 75.1131 88.7421C75.1066 88.7809 75.1066 88.8133 75.0937 88.8521C75.0872 88.9557 75.0743 89.0657 75.0549 89.1757C75.0354 89.3698 75.0096 89.5769 74.9901 89.7711C74.9837 89.8552 74.9837 89.9393 74.9707 90.0299C74.9643 90.1593 74.9513 90.3017 74.9449 90.4311C74.9384 90.5541 74.919 90.6706 74.919 90.7871C74.9125 90.9359 74.8996 91.0848 74.8931 91.2336C74.8931 91.363 74.8866 91.4925 74.8737 91.6154V91.8031C74.8672 92.1202 74.8542 92.4373 74.8542 92.7414L74.8801 92.735Z" fill="url(#paint2_linear_35_2407)"/>
<path opacity="0.4" d="M74.8807 92.735L75.6638 366.625V366.684C75.6638 367.026 75.6702 367.363 75.6832 367.693C75.6832 367.719 75.6897 367.751 75.6897 367.777C75.6897 367.881 75.6961 367.984 75.7091 368.094C75.7155 368.288 75.7285 368.483 75.7479 368.677C75.7479 368.741 75.7544 368.8 75.7673 368.851C75.7738 369 75.7932 369.136 75.8126 369.285C75.8191 369.414 75.832 369.557 75.8514 369.686C75.8579 369.757 75.8773 369.842 75.8903 369.919C75.9097 370.075 75.9356 370.223 75.955 370.372C75.9744 370.476 75.9809 370.579 76.0003 370.676C76.0197 370.767 76.0391 370.851 76.0585 370.948C76.0844 371.116 76.1232 371.285 76.1621 371.44C76.1815 371.531 76.188 371.615 76.2074 371.712C76.2268 371.783 76.2527 371.867 76.2721 371.945C76.3174 372.139 76.3756 372.333 76.4209 372.521C76.4468 372.605 76.4662 372.695 76.4856 372.78C76.505 372.838 76.5309 372.903 76.5503 372.954C76.6151 373.187 76.6927 373.401 76.7639 373.614C76.8027 373.705 76.8221 373.789 76.8545 373.886C76.861 373.912 76.8804 373.944 76.8933 373.977C77.0357 374.339 77.1781 374.702 77.3463 375.045C77.3463 375.051 77.3463 375.064 77.3528 375.07C77.3593 375.09 77.3787 375.109 77.3916 375.135C77.6052 375.588 77.8446 376.015 78.11 376.43C78.1164 376.455 78.1358 376.488 78.1488 376.514C78.1553 376.52 78.1682 376.533 78.1747 376.54C78.3882 376.876 78.6083 377.187 78.8542 377.484C78.9124 377.556 78.9771 377.633 79.0289 377.698C79.2619 377.976 79.4949 378.248 79.7537 378.494L79.812 378.552C80.0838 378.824 80.3685 379.057 80.6597 379.283C80.7309 379.342 80.8021 379.393 80.8733 379.439C81.1709 379.659 81.4751 379.872 81.8051 380.06L94.8969 387.67C94.5798 387.483 94.2756 387.269 93.9779 387.056C93.9067 386.997 93.8291 386.946 93.7644 386.887C93.4667 386.667 93.1884 386.421 92.9166 386.163C92.8907 386.137 92.8713 386.117 92.8519 386.098C92.5995 385.845 92.3601 385.58 92.1336 385.302C92.0688 385.237 92.0106 385.159 91.9588 385.095C91.7194 384.791 91.4864 384.473 91.2728 384.137C91.2534 384.098 91.234 384.066 91.2081 384.033C90.9557 383.626 90.7163 383.186 90.4898 382.733C90.4833 382.707 90.4639 382.668 90.4445 382.642C90.2892 382.299 90.1403 381.943 89.998 381.574C89.9527 381.451 89.9139 381.335 89.8686 381.218C89.7974 380.998 89.7197 380.785 89.6485 380.552C89.6097 380.409 89.5644 380.267 89.5256 380.118C89.4673 379.931 89.422 379.736 89.3767 379.542C89.3314 379.387 89.2926 379.219 89.2538 379.05C89.2149 378.882 89.189 378.714 89.1502 378.546C89.1243 378.352 89.0855 378.164 89.0596 377.97C89.0337 377.821 89.0143 377.672 88.9949 377.517C88.9561 377.31 88.9367 377.096 88.9108 376.882C88.9043 376.74 88.8849 376.598 88.8655 376.449C88.8461 376.197 88.8266 375.944 88.8202 375.685C88.8137 375.582 88.8008 375.472 88.7943 375.368C88.7878 374.986 88.7684 374.605 88.7684 374.216L87.9983 100.326C87.9983 99.9572 88.0048 99.5818 88.0177 99.2129C88.0242 99.0835 88.0242 98.9541 88.0371 98.8247C88.0436 98.5658 88.063 98.294 88.0824 98.0287C88.0889 97.8992 88.1019 97.7569 88.1213 97.6274C88.1407 97.3427 88.1795 97.058 88.2054 96.7732C88.2119 96.6632 88.2313 96.5597 88.2442 96.4496C88.2895 96.0484 88.3478 95.6601 88.4125 95.2589C88.419 95.1942 88.4319 95.1359 88.4384 95.0712C88.4966 94.7347 88.5613 94.4047 88.626 94.0617C88.6519 93.9193 88.6843 93.7834 88.7102 93.6346C88.7684 93.3757 88.8202 93.1169 88.8784 92.8451C88.9173 92.6898 88.9496 92.5409 88.9884 92.3791C89.0531 92.1203 89.1179 91.8679 89.1826 91.609C89.2214 91.4537 89.2538 91.3049 89.3055 91.1431C89.3767 90.8648 89.4609 90.5865 89.5385 90.3083C89.5838 90.1788 89.6097 90.0494 89.6615 89.92C89.7844 89.5187 89.9139 89.111 90.0433 88.7098C90.0627 88.6645 90.0821 88.6192 90.1015 88.561C90.2115 88.205 90.341 87.8556 90.4704 87.4997C90.5157 87.3767 90.561 87.2602 90.6128 87.1373C90.7163 86.8525 90.8263 86.5678 90.9363 86.2895C90.9816 86.1601 91.0399 86.0307 91.0916 85.8883C91.2146 85.6035 91.3311 85.3058 91.4605 85.0146C91.4994 84.9111 91.5446 84.8075 91.5899 84.7105C91.7582 84.3222 91.9329 83.9274 92.1206 83.5391C92.1659 83.4356 92.2112 83.3321 92.2695 83.235C92.4118 82.9502 92.5477 82.6526 92.6966 82.3549C92.8066 82.1413 92.9166 81.9342 93.0201 81.7207C93.0266 81.7142 93.0266 81.7013 93.0266 81.6948L79.5466 74.861H79.5401C79.4107 75.1328 79.2878 75.3787 79.1713 75.6311C79.126 75.7346 79.0677 75.8381 79.0224 75.9352C79.016 75.9546 79.016 75.9611 79.003 75.9805C78.8477 76.317 78.6859 76.66 78.5371 76.9901C78.5177 77.0289 78.5112 77.0612 78.4918 77.1001C78.4465 77.2036 78.4077 77.3072 78.3624 77.4042C78.2782 77.5984 78.1876 77.7925 78.11 77.9867C78.0647 78.0902 78.0388 78.1808 77.987 78.2714C77.9288 78.4008 77.8835 78.5432 77.8317 78.6726C77.7864 78.7826 77.7411 78.8927 77.6893 79.0091C77.6246 79.1774 77.5664 79.3457 77.5016 79.5139C77.4564 79.6369 77.411 79.7663 77.3593 79.8828C77.3399 79.941 77.3205 79.9863 77.301 80.0381C77.191 80.3358 77.0875 80.6399 76.9839 80.9376C76.9645 80.9959 76.9451 81.0412 76.9257 81.0865V81.1059C76.8027 81.4683 76.6862 81.8307 76.5698 82.1931C76.5633 82.2319 76.5503 82.2643 76.5439 82.2966C76.505 82.4261 76.4727 82.549 76.4339 82.6784C76.3692 82.8855 76.3109 83.0991 76.2462 83.3126C76.2268 83.3774 76.2074 83.455 76.188 83.5262C76.1491 83.675 76.1038 83.8304 76.065 83.9792C76.0262 84.128 75.9938 84.2769 75.955 84.4128C75.9291 84.5357 75.8967 84.6458 75.8709 84.7558C75.832 84.9111 75.7997 85.0599 75.7673 85.2217C75.7414 85.3123 75.722 85.4159 75.6961 85.5065C75.6573 85.6747 75.6314 85.843 75.5926 86.0112C75.5667 86.1601 75.5343 86.296 75.5085 86.4383C75.502 86.4966 75.489 86.5484 75.4696 86.6066C75.4243 86.8913 75.379 87.1761 75.3273 87.4608C75.3208 87.5191 75.3014 87.5708 75.2884 87.6356V87.6614C75.2302 88.0174 75.1784 88.3668 75.1396 88.7098C75.1331 88.7486 75.1331 88.781 75.1202 88.8198C75.1137 88.9234 75.1008 89.0334 75.0813 89.1434C75.0619 89.3376 75.036 89.5446 75.0166 89.7388C75.0102 89.8229 75.0102 89.907 74.9972 89.9976C74.9907 90.1271 74.9778 90.2694 74.9713 90.3989C74.9648 90.5218 74.9454 90.6383 74.9454 90.7548C74.939 90.9036 74.926 91.0525 74.9196 91.2013C74.9196 91.3307 74.9131 91.4602 74.9001 91.5831V91.7708C74.8937 92.0879 74.8807 92.405 74.8807 92.7092V92.735Z" fill="#525F7B"/>
<path d="M141.86 60.8115L170.334 44.374C172.916 42.8856 175.013 44.0828 175.026 47.0467C175.032 50.0236 172.948 53.6346 170.366 55.1295L141.892 71.567C139.31 73.0554 137.213 71.8582 137.2 68.8813C137.194 65.9174 139.278 62.2999 141.86 60.8115Z" fill="#757F95"/>
<mask id="mask0_35_2407" style="mask-type:luminance" maskUnits="userSpaceOnUse" x="215" y="317" width="42" height="40">
<path d="M256.081 356.757L256.126 341.31L215.208 317.689L215.162 333.13L256.081 356.757Z" fill="white"/>
</mask>
<g mask="url(#mask0_35_2407)">
<path d="M253.396 352.563L253.422 342.364L251.513 341.264C250.102 340.449 249.008 340.268 248.238 340.733C247.461 341.193 247.073 342.228 247.073 343.84C247.073 345.451 247.448 346.914 248.219 348.247C248.982 349.573 250.076 350.648 251.487 351.463L253.396 352.563ZM251.428 338.598L256.127 341.309L256.081 356.757L251.383 354.045C249.972 353.23 248.73 352.194 247.662 350.939C246.594 349.69 245.766 348.312 245.183 346.817C244.601 345.322 244.316 343.801 244.316 342.254C244.316 340.708 244.62 339.51 245.203 338.676C245.792 337.841 246.62 337.414 247.694 337.401C248.769 337.388 250.011 337.789 251.422 338.604" fill="white"/>
<path d="M227.665 324.879L230.707 326.632L234.952 340.585L239.256 331.57L242.317 333.337L242.271 348.784L239.579 347.224L239.605 337.181L235.962 345.134L233.917 343.956L230.345 331.829L230.319 341.879L227.62 340.319L227.665 324.879Z" fill="white"/>
<path d="M222.294 328.8L222.307 324.309L220.171 323.073C218.709 322.232 217.978 322.562 217.971 324.063C217.971 324.775 218.146 325.422 218.502 326.024C218.858 326.619 219.414 327.137 220.158 327.564L222.294 328.8ZM220.061 320.491L225.012 323.351L224.967 338.798L222.268 337.239L222.287 331.311L220.035 330.01C218.935 329.376 218.023 328.625 217.292 327.765C216.56 326.904 216.036 326.011 215.7 325.092C215.363 324.173 215.195 323.306 215.195 322.471C215.195 321.558 215.382 320.84 215.745 320.329C216.114 319.818 216.664 319.565 217.395 319.578C218.126 319.585 219.013 319.895 220.055 320.497" fill="white"/>
</g>
<mask id="mask1_35_2407" style="mask-type:luminance" maskUnits="userSpaceOnUse" x="217" y="371" width="37" height="38">
<path d="M253.286 408.114L253.331 392.291L217.997 371.893L217.952 387.71L253.286 408.114Z" fill="white"/>
</mask>
<g mask="url(#mask1_35_2407)">
<path d="M250.601 403.772L250.626 393.573L248.717 392.473C247.307 391.657 246.213 391.476 245.443 391.942C244.673 392.408 244.278 393.437 244.278 395.048C244.278 396.66 244.66 398.129 245.423 399.455C246.187 400.789 247.281 401.863 248.692 402.672L250.601 403.772ZM248.633 389.807L253.332 392.518L253.286 407.965L248.588 405.254C247.177 404.438 245.935 403.403 244.867 402.148C243.799 400.899 242.971 399.52 242.388 398.025C241.806 396.53 241.521 395.01 241.521 393.463C241.521 391.916 241.825 390.719 242.408 389.884C242.99 389.049 243.825 388.622 244.899 388.609C245.974 388.596 247.216 388.998 248.627 389.813" fill="white"/>
<path d="M235.102 381.769C236.021 382.3 236.842 382.953 237.561 383.73C238.279 384.506 238.836 385.348 239.237 386.26C239.632 387.166 239.826 388.079 239.826 388.991C239.826 389.962 239.625 390.628 239.23 390.991C238.836 391.347 238.37 391.508 237.82 391.483C237.276 391.45 236.564 391.334 235.691 391.127C235.05 390.958 234.545 390.861 234.176 390.816C233.807 390.777 233.503 390.829 233.264 390.984C233.018 391.14 232.895 391.444 232.895 391.897C232.895 392.46 233.076 393.016 233.432 393.573C233.788 394.129 234.28 394.582 234.908 394.945C235.535 395.307 236.014 395.404 236.364 395.236C236.72 395.074 236.914 394.686 236.952 394.071L239.845 395.741C239.826 396.679 239.599 397.365 239.159 397.805C238.726 398.245 238.124 398.433 237.373 398.375C236.622 398.31 235.775 398.006 234.836 397.462C233.846 396.893 232.998 396.194 232.28 395.359C231.562 394.524 231.018 393.644 230.649 392.719C230.274 391.793 230.093 390.92 230.093 390.091C230.093 389.133 230.3 388.473 230.701 388.117C231.102 387.755 231.575 387.587 232.131 387.613C232.681 387.639 233.4 387.755 234.267 387.962C234.908 388.111 235.406 388.202 235.762 388.234C236.118 388.273 236.409 388.221 236.655 388.085C236.894 387.943 237.011 387.671 237.011 387.257C237.011 386.668 236.855 386.124 236.545 385.639C236.228 385.141 235.814 384.746 235.283 384.442C234.681 384.092 234.196 383.982 233.827 384.118C233.464 384.254 233.264 384.584 233.238 385.095L230.274 383.387C230.365 382.054 230.85 381.251 231.717 380.979C232.584 380.708 233.71 380.967 235.102 381.769Z" fill="white"/>
<path d="M225.084 383.232L225.097 378.74L222.961 377.504C221.499 376.663 220.761 376.987 220.755 378.488C220.755 379.193 220.936 379.853 221.292 380.449C221.648 381.051 222.204 381.562 222.948 381.996L225.084 383.232ZM222.851 374.922L227.802 377.783L227.757 393.23L225.058 391.67L225.078 385.742L222.825 384.442C221.725 383.807 220.806 383.05 220.082 382.196C219.357 381.335 218.826 380.442 218.49 379.523C218.153 378.604 217.978 377.724 217.985 376.902C217.985 375.99 218.173 375.278 218.541 374.767C218.91 374.256 219.46 374.003 220.192 374.016C220.923 374.023 221.809 374.333 222.851 374.935" fill="white"/>
</g>
<path opacity="0.2" d="M101.915 131.572C101.896 125.036 106.491 117.063 112.192 113.769L199.025 63.6347C204.714 60.3473 209.341 63.0005 209.36 69.5367L209.645 151.323C209.645 151.853 209.606 152.39 209.548 152.94L209.645 186.437C209.664 192.973 205.07 200.946 199.381 204.233L112.548 254.367C106.846 257.661 102.219 255.008 102.2 248.472L101.915 148.695C101.915 148.165 101.954 147.627 102.012 147.077L101.915 131.572Z" fill="#757F95"/>
<path opacity="0.2" d="M101.923 286.763C101.923 284.602 103.438 281.968 105.321 280.88L130.055 266.598C130.055 266.598 130.074 266.585 130.081 266.579L158.781 250.005C158.781 250.005 158.794 250.005 158.794 249.999L177.49 239.205C177.49 239.205 177.51 239.192 177.516 239.185L206.217 222.612C208.1 221.525 209.627 222.405 209.634 224.566L209.621 224.799C209.621 226.961 208.107 229.594 206.23 230.682L181.496 244.964C181.496 244.964 181.477 244.977 181.47 244.983L152.769 261.557C152.769 261.557 152.763 261.557 152.757 261.563L134.061 272.358C134.061 272.358 134.041 272.371 134.035 272.377L105.334 288.95C103.451 290.038 101.917 289.164 101.917 287.002L101.93 286.769L101.923 286.763Z" fill="#757F95"/>
<path opacity="0.2" d="M101.923 306.83C101.923 304.669 103.437 302.035 105.321 300.948L130.054 286.665C130.054 286.665 130.074 286.652 130.08 286.646L158.781 270.072C158.781 270.072 158.794 270.072 158.794 270.066L177.49 259.272C177.49 259.272 177.509 259.259 177.516 259.252L206.217 242.679C208.1 241.592 209.627 242.472 209.634 244.633L209.621 244.866C209.621 247.028 208.106 249.662 206.23 250.749L181.496 265.031C181.496 265.031 181.476 265.044 181.47 265.051L152.769 281.624C152.769 281.624 152.763 281.624 152.756 281.63L134.06 292.425C134.06 292.425 134.041 292.438 134.034 292.444L105.334 309.018C103.45 310.105 101.917 309.231 101.917 307.07L101.93 306.837L101.923 306.83Z" fill="#757F95"/>
<path d="M267.556 114.285L254.125 106.566L192.556 119.293L205.987 127.012L267.556 114.285Z" fill="url(#paint3_linear_35_2407)"/>
<path d="M205.987 127.012L144.777 185.972C144.803 189.782 145.369 262.211 145.399 266.9C145.438 271.574 153.822 301.241 207.306 297.665C260.356 239.035 268.217 199.887 268.178 195.213C268.14 190.524 267.582 118.102 267.556 114.285L205.987 127.012Z" fill="url(#paint4_linear_35_2407)"/>
<path d="M206.157 150.702L163.242 192.041C163.255 194.712 163.652 245.493 163.676 248.776C163.7 252.052 169.583 272.855 207.071 270.347C244.26 229.248 249.774 201.799 249.751 198.524C249.727 195.248 249.33 144.459 249.317 141.789L206.157 150.71L206.157 150.702Z" fill="url(#paint5_linear_35_2407)"/>
<path d="M205.987 127.012L192.556 119.293L131.347 178.254L144.777 185.972L205.987 127.012Z" fill="url(#paint6_linear_35_2407)"/>
<path d="M131.347 178.254L144.777 185.973C144.804 189.782 145.369 262.211 145.4 266.901C145.4 267.073 145.417 267.277 145.442 267.513C145.442 267.529 145.442 267.552 145.442 267.576C145.467 267.811 145.507 268.07 145.556 268.353C145.556 268.392 145.572 268.439 145.58 268.478C145.628 268.714 145.685 268.965 145.741 269.224C145.789 269.42 145.853 269.64 145.909 269.852C145.957 270.024 146.005 270.197 146.061 270.385C146.204 270.856 146.372 271.357 146.571 271.891C146.722 272.298 146.897 272.73 147.088 273.168C147.143 273.294 147.207 273.427 147.262 273.553C147.397 273.85 147.54 274.156 147.699 274.469C147.842 274.759 148 275.057 148.159 275.363C148.293 275.613 148.428 275.864 148.571 276.123C148.745 276.428 148.943 276.741 149.133 277.062C149.299 277.329 149.458 277.595 149.64 277.869C149.79 278.096 149.948 278.323 150.107 278.55C150.328 278.871 150.55 279.184 150.795 279.505C150.969 279.74 151.158 279.983 151.348 280.217C151.601 280.538 151.854 280.851 152.13 281.172C152.336 281.414 152.549 281.657 152.762 281.899C153.047 282.22 153.347 282.54 153.647 282.853C153.876 283.096 154.112 283.338 154.357 283.58C154.681 283.901 155.028 284.221 155.375 284.542C155.628 284.776 155.88 285.01 156.148 285.245C156.527 285.573 156.937 285.901 157.339 286.229C157.607 286.447 157.868 286.666 158.144 286.877C158.609 287.236 159.113 287.579 159.61 287.93C159.862 288.109 160.099 288.289 160.367 288.46C161.147 288.975 161.958 289.49 162.817 289.98L149.386 282.261C148.528 281.771 147.716 281.256 146.936 280.742C146.676 280.57 146.439 280.39 146.187 280.211C145.683 279.86 145.186 279.517 144.713 279.158C144.429 278.947 144.169 278.728 143.901 278.51C143.491 278.182 143.089 277.854 142.71 277.526C142.442 277.291 142.189 277.057 141.937 276.823C141.59 276.502 141.242 276.182 140.919 275.861C140.674 275.619 140.445 275.385 140.216 275.142C139.908 274.822 139.608 274.501 139.324 274.18C139.111 273.938 138.897 273.695 138.692 273.453C138.423 273.132 138.162 272.811 137.91 272.498C137.72 272.264 137.538 272.021 137.364 271.786C137.127 271.465 136.898 271.144 136.676 270.823C136.518 270.596 136.36 270.369 136.209 270.142C136.154 270.064 136.091 269.978 136.043 269.892C135.924 269.704 135.821 269.524 135.71 269.336C135.513 269.022 135.322 268.709 135.148 268.396C134.998 268.137 134.871 267.887 134.736 267.636C134.577 267.338 134.419 267.04 134.276 266.751C134.228 266.656 134.173 266.555 134.125 266.461C134.022 266.249 133.935 266.037 133.84 265.834C133.784 265.708 133.72 265.575 133.665 265.45C133.482 265.018 133.307 264.603 133.156 264.195C133.156 264.187 133.156 264.179 133.148 264.172C132.949 263.638 132.782 263.144 132.638 262.674C132.63 262.635 132.606 262.595 132.598 262.556C132.55 262.407 132.526 262.282 132.486 262.14C132.43 261.929 132.366 261.709 132.318 261.513C132.31 261.466 132.294 261.419 132.278 261.372C132.23 261.152 132.19 260.956 132.15 260.76C132.149 260.72 132.133 260.673 132.125 260.634C132.125 260.634 132.125 260.618 132.125 260.61C132.085 260.399 132.053 260.202 132.028 260.014C132.028 259.959 132.012 259.904 132.012 259.857C132.011 259.833 132.011 259.818 132.011 259.794C132.011 259.763 132.011 259.739 132.003 259.708C131.995 259.613 131.986 259.519 131.978 259.433C131.978 259.347 131.977 259.268 131.977 259.197C131.977 259.197 131.977 259.189 131.977 259.182C131.966 256.911 131.822 238.751 131.677 220.19C131.671 218.996 131.665 217.795 131.651 216.601C131.609 211.212 131.568 205.879 131.528 200.978C131.523 199.886 131.518 198.817 131.505 197.773C131.502 197.254 131.5 196.736 131.497 196.225C131.49 194.702 131.475 193.241 131.46 191.85C131.451 189.997 131.435 188.284 131.419 186.737C131.412 185.189 131.397 183.815 131.392 182.637C131.389 182.047 131.386 181.513 131.384 181.026C131.377 179.573 131.372 178.615 131.37 178.254L131.347 178.254Z" fill="url(#paint7_linear_35_2407)"/>
<path opacity="0.3" d="M131.347 178.254L144.777 185.973C144.804 189.782 145.369 262.211 145.4 266.901C145.4 267.073 145.417 267.277 145.442 267.513C145.442 267.529 145.442 267.552 145.442 267.576C145.467 267.811 145.507 268.07 145.556 268.353C145.556 268.392 145.572 268.439 145.58 268.478C145.628 268.714 145.685 268.965 145.741 269.224C145.789 269.42 145.853 269.64 145.909 269.852C145.957 270.024 146.005 270.197 146.061 270.385C146.204 270.856 146.372 271.357 146.571 271.891C146.722 272.298 146.897 272.73 147.088 273.168C147.143 273.294 147.207 273.427 147.262 273.553C147.397 273.85 147.54 274.156 147.699 274.469C147.842 274.759 148 275.057 148.159 275.363C148.293 275.613 148.428 275.864 148.571 276.123C148.745 276.428 148.943 276.741 149.133 277.062C149.299 277.329 149.458 277.595 149.64 277.869C149.79 278.096 149.948 278.323 150.107 278.55C150.328 278.871 150.55 279.184 150.795 279.505C150.969 279.74 151.158 279.983 151.348 280.217C151.601 280.538 151.854 280.851 152.13 281.172C152.336 281.414 152.549 281.657 152.762 281.899C153.047 282.22 153.347 282.54 153.647 282.853C153.876 283.096 154.112 283.338 154.357 283.58C154.681 283.901 155.028 284.221 155.375 284.542C155.628 284.776 155.88 285.01 156.148 285.245C156.527 285.573 156.937 285.901 157.339 286.229C157.607 286.447 157.868 286.666 158.144 286.877C158.609 287.236 159.113 287.579 159.61 287.93C159.862 288.109 160.099 288.289 160.367 288.46C161.147 288.975 161.958 289.49 162.817 289.98L149.386 282.261C148.528 281.771 147.716 281.256 146.936 280.742C146.676 280.57 146.439 280.39 146.187 280.211C145.683 279.86 145.186 279.517 144.713 279.158C144.429 278.947 144.169 278.728 143.901 278.51C143.491 278.182 143.089 277.854 142.71 277.526C142.442 277.291 142.189 277.057 141.937 276.823C141.59 276.502 141.242 276.182 140.919 275.861C140.674 275.619 140.445 275.385 140.216 275.142C139.908 274.822 139.608 274.501 139.324 274.18C139.111 273.938 138.897 273.695 138.692 273.453C138.423 273.132 138.162 272.811 137.91 272.498C137.72 272.264 137.538 272.021 137.364 271.786C137.127 271.465 136.898 271.144 136.676 270.823C136.518 270.596 136.36 270.369 136.209 270.142C136.154 270.064 136.091 269.978 136.043 269.892C135.924 269.704 135.821 269.524 135.71 269.336C135.513 269.022 135.322 268.709 135.148 268.396C134.998 268.137 134.871 267.887 134.736 267.636C134.577 267.338 134.419 267.04 134.276 266.751C134.228 266.656 134.173 266.555 134.125 266.461C134.022 266.249 133.935 266.037 133.84 265.834C133.784 265.708 133.72 265.575 133.665 265.45C133.482 265.018 133.307 264.603 133.156 264.195C133.156 264.187 133.156 264.179 133.148 264.172C132.949 263.638 132.782 263.144 132.638 262.674C132.63 262.635 132.606 262.595 132.598 262.556C132.55 262.407 132.526 262.282 132.486 262.14C132.43 261.929 132.366 261.709 132.318 261.513C132.31 261.466 132.294 261.419 132.278 261.372C132.23 261.152 132.19 260.956 132.15 260.76C132.149 260.72 132.133 260.673 132.125 260.634C132.125 260.634 132.125 260.618 132.125 260.61C132.085 260.399 132.053 260.202 132.028 260.014C132.028 259.959 132.012 259.904 132.012 259.857C132.011 259.833 132.011 259.818 132.011 259.794C132.011 259.763 132.011 259.739 132.003 259.708C131.995 259.613 131.986 259.519 131.978 259.433C131.978 259.347 131.977 259.268 131.977 259.197C131.977 259.197 131.977 259.189 131.977 259.182C131.966 256.911 131.822 238.751 131.677 220.19C131.671 218.996 131.665 217.795 131.651 216.601C131.609 211.212 131.568 205.879 131.528 200.978C131.523 199.886 131.518 198.817 131.505 197.773C131.502 197.254 131.5 196.736 131.497 196.225C131.49 194.702 131.475 193.241 131.46 191.85C131.451 189.997 131.435 188.284 131.419 186.737C131.412 185.189 131.397 183.815 131.392 182.637C131.389 182.047 131.386 181.513 131.384 181.026C131.377 179.573 131.372 178.615 131.37 178.254L131.347 178.254Z" fill="#065F8C"/>
<g clip-path="url(#clip1_35_2407)">
<path d="M186.714 199.533C187.814 198.868 188.805 198.453 189.692 198.294C190.58 198.135 191.333 198.239 191.959 198.599C192.579 198.966 193.053 199.607 193.388 200.51C193.716 201.42 193.868 202.605 193.843 204.058C193.825 205.377 193.679 206.635 193.424 207.838C193.163 209.041 192.804 210.225 192.342 211.41C191.88 212.588 191.327 213.779 190.683 214.982C190.039 216.185 189.315 217.455 188.519 218.792C187.857 219.904 187.188 220.997 186.526 222.065C185.863 223.14 185.274 224.153 184.739 225.112C184.204 226.071 183.772 226.968 183.444 227.811C183.11 228.654 182.94 229.399 182.927 230.046L182.927 230.156L193.916 223.476L193.85 228L178.563 237.3L178.6 234.772C178.618 233.74 178.734 232.714 178.971 231.682C179.202 230.65 179.499 229.625 179.876 228.611C180.253 227.591 180.691 226.584 181.183 225.582C181.681 224.587 182.216 223.586 182.782 222.59C183.347 221.589 183.918 220.612 184.508 219.647C185.091 218.682 185.669 217.718 186.234 216.759C186.763 215.855 187.249 214.982 187.687 214.158C188.124 213.327 188.501 212.515 188.817 211.721C189.127 210.934 189.376 210.146 189.559 209.37C189.741 208.595 189.838 207.807 189.85 207.026C189.862 206.159 189.777 205.469 189.589 204.943C189.4 204.418 189.133 204.052 188.787 203.838C188.434 203.631 188.015 203.557 187.535 203.637C187.048 203.71 186.52 203.93 185.942 204.278C184.945 204.882 183.924 205.811 182.885 207.056C181.846 208.302 180.837 209.841 179.87 211.654L179.949 206.592C180.454 205.786 180.964 205.047 181.481 204.363C181.998 203.679 182.526 203.051 183.073 202.47C183.62 201.89 184.198 201.353 184.799 200.865C185.401 200.382 186.039 199.93 186.72 199.521L186.714 199.533Z" fill="white"/>
<path d="M212.868 184.177L212.795 188.756L203.69 194.294L203.538 204.083L211.932 198.978L211.865 203.545L203.471 208.65L203.258 222.279L199.223 224.74L199.721 192.169L212.868 184.177Z" fill="white"/>
<path d="M226.069 176.147L234.621 203.216L230.19 205.908L228.123 198.947L218.544 204.773L216.314 214.347L211.895 217.034L221.51 178.919L226.063 176.147L226.069 176.147ZM219.663 199.729L227.12 195.192L223.942 184.256C223.844 183.896 223.747 183.279 223.65 182.412L223.583 182.455C223.467 183.377 223.346 184.128 223.212 184.702L219.663 199.729Z" fill="white"/>
</g>
<path d="M61.8954 157.513L-68.3367 82.6765L-68.6335 21.8243L24.0196 -33.3969L130.179 27.9824L61.8954 157.513Z" fill="url(#paint8_linear_35_2407)"/>
<path d="M54.477 77.6515L55.0382 149.935C55.0389 150.078 55.0504 150.199 55.051 150.309C55.0515 150.418 55.0631 150.539 55.0637 150.671C55.0753 150.792 55.0978 150.901 55.1094 151.033C55.1209 151.143 55.1435 151.264 55.155 151.373C55.1663 151.439 55.1665 151.483 55.1887 151.527C55.1888 151.538 55.1998 151.56 55.1999 151.571C55.2002 151.637 55.2114 151.681 55.2337 151.746C55.2672 151.867 55.3008 151.999 55.3343 152.119C55.379 152.262 55.4125 152.382 55.4571 152.514C55.5236 152.634 55.5682 152.766 55.6346 152.887L55.6348 152.919L55.6458 152.919C55.7237 153.128 55.8232 153.281 55.9339 153.456C56.0114 153.577 56.1107 153.675 56.1991 153.784C56.2654 153.861 56.3208 153.959 56.409 154.036C56.6629 154.298 56.9276 154.539 57.225 154.702L62.7866 157.893C62.4673 157.718 62.2026 157.489 61.9707 157.227C61.8934 157.15 61.8271 157.052 61.7498 156.975C61.5399 156.713 61.3408 156.428 61.1964 156.099C61.1854 156.099 61.1854 156.088 61.1854 156.088C60.9967 155.694 60.8519 155.255 60.7507 154.773L60.7504 154.729C60.6383 154.246 60.5917 153.708 60.5889 153.126L60.0277 80.8423C60.0248 80.2493 60.0658 79.6341 60.1616 79.0186C60.2575 78.4031 60.4082 77.7874 60.5809 77.1605L60.5919 77.1605C60.7755 76.5336 60.9921 75.9175 61.2527 75.3012C61.4699 74.795 61.6982 74.3106 61.9705 73.848C62.0139 73.738 62.0683 73.6389 62.1227 73.5288C62.1335 73.4958 62.1554 73.4847 62.1662 73.4517C62.493 72.89 62.8526 72.3172 63.2454 71.7991C63.6381 71.248 64.053 70.7408 64.49 70.2665C64.5009 70.2664 64.5009 70.2554 64.5228 70.2553C64.9488 69.781 65.419 69.3504 65.8784 68.9638L65.9111 68.9307C66.3924 68.5329 66.885 68.1901 67.3997 67.891L130.129 31.2773C130.38 31.1333 130.632 31.0112 130.862 30.9003C130.873 30.8892 130.895 30.8891 130.906 30.8671C131.136 30.7562 131.377 30.6562 131.608 30.5782C131.619 30.5781 131.641 30.578 131.652 30.567C131.871 30.5 132.09 30.444 132.31 30.388C132.321 30.377 132.354 30.3768 132.376 30.3767C132.584 30.3318 132.781 30.2979 132.99 30.2749C133.023 30.2747 133.034 30.2637 133.067 30.2635C133.254 30.2516 133.44 30.2507 133.627 30.2608L133.737 30.2603C133.924 30.2703 134.11 30.2914 134.297 30.3234C134.33 30.3343 134.363 30.3561 134.396 30.3559C134.55 30.3881 134.693 30.4313 134.836 30.4746C135.045 30.5504 135.232 30.6264 135.419 30.7353L129.858 27.5446C129.671 27.4466 129.483 27.3597 129.296 27.2947C129.296 27.2947 129.285 27.2911 129.263 27.2839C129.12 27.2406 128.977 27.1864 128.835 27.1652C128.802 27.1653 128.769 27.1545 128.736 27.1547C128.593 27.1224 128.45 27.0902 128.296 27.0799L128.065 27.0811C128.065 27.0811 127.966 27.0706 127.923 27.0708C127.802 27.0714 127.692 27.0829 127.56 27.0835L127.494 27.0838C127.494 27.0838 127.45 27.095 127.428 27.0951C127.363 27.0955 127.286 27.1068 127.22 27.1071C127.11 27.1187 127 27.1412 126.891 27.1746C126.858 27.1748 126.825 27.1859 126.792 27.1861C126.781 27.1862 126.759 27.1973 126.726 27.1974C126.682 27.2086 126.627 27.2089 126.583 27.2311C126.485 27.2645 126.375 27.276 126.265 27.3095C126.2 27.3427 126.145 27.354 126.079 27.3873L126.035 27.3875C126.035 27.3875 126.002 27.3986 125.969 27.4208C125.871 27.4542 125.783 27.4876 125.673 27.532C125.575 27.5654 125.487 27.6098 125.377 27.6543C125.366 27.6543 125.345 27.6654 125.334 27.6874C125.323 27.6875 125.301 27.6876 125.29 27.6986C125.213 27.7319 125.147 27.7652 125.082 27.7985C124.983 27.8429 124.873 27.8983 124.786 27.9537C124.709 27.998 124.632 28.0313 124.556 28.0756L61.8161 64.7114C61.8161 64.7114 61.7723 64.7446 61.7504 64.7447C61.6409 64.8111 61.5314 64.8885 61.4329 64.9549C61.3234 65.0213 61.214 65.0987 61.1045 65.1652C61.006 65.2425 60.8965 65.3199 60.7871 65.3973C60.6776 65.4748 60.5682 65.5522 60.4589 65.6515C60.4151 65.6847 60.3603 65.7179 60.3385 65.751C60.3276 65.762 60.3058 65.7841 60.2948 65.7841C60.2511 65.8283 60.1854 65.8835 60.1417 65.9276C60.0324 66.027 59.923 66.1154 59.8137 66.2148C59.7044 66.3251 59.595 66.4245 59.4857 66.5349C59.3764 66.6342 59.2671 66.7446 59.1688 66.8549L58.9174 67.1087C58.9174 67.1087 58.8737 67.1529 58.8519 67.1749C58.7536 67.2853 58.6662 67.3955 58.5679 67.5058C58.4586 67.6162 58.3604 67.7265 58.273 67.8367C58.1748 67.958 58.0875 68.0683 57.9893 68.2005C57.8801 68.3438 57.771 68.4871 57.6619 68.6304C57.6619 68.6304 57.6619 68.6414 57.651 68.6415C57.4983 68.8619 57.3346 69.0823 57.2039 69.3026C57.0186 69.6 56.8333 69.8865 56.6482 70.2059C56.6374 70.2389 56.6156 70.2719 56.6048 70.3049C56.5939 70.3379 56.5721 70.371 56.5612 70.382C56.4631 70.5362 56.3761 70.7014 56.3 70.8665C56.2346 70.9766 56.1912 71.0867 56.1259 71.1968C56.0931 71.2299 56.0823 71.2739 56.0605 71.307C55.9952 71.4281 55.941 71.5711 55.8757 71.7032C55.8324 71.8242 55.7671 71.9344 55.7238 72.0664C55.7129 72.0774 55.713 72.1104 55.6912 72.1325C55.6912 72.1325 55.6912 72.1434 55.6802 72.1435C55.6478 72.2425 55.6042 72.3306 55.5718 72.4296C55.5284 72.5396 55.4741 72.6607 55.4308 72.7927C55.3874 72.9137 55.3331 73.0238 55.2898 73.1558C55.2464 73.2768 55.1922 73.4088 55.1488 73.5299C55.1166 73.6728 55.0732 73.7938 55.0409 73.9258C55.03 73.9368 55.0302 73.9697 55.0083 73.9918L55.0085 74.0247C54.976 74.1238 54.9436 74.2337 54.9111 74.3218C54.8787 74.4427 54.8465 74.5857 54.8142 74.7176C54.7819 74.8605 54.7495 74.9815 54.7172 75.1134C54.685 75.2564 54.6527 75.3773 54.6423 75.5092C54.61 75.6301 54.5995 75.74 54.5782 75.8719C54.5459 76.0148 54.5355 76.1357 54.5142 76.2676C54.5038 76.3884 54.4825 76.5203 54.483 76.6302C54.4726 76.751 54.4513 76.8829 54.4518 76.9927C54.4415 77.1136 54.4421 77.2454 54.4427 77.3552C54.4323 77.4761 54.4328 77.5859 54.4333 77.6957L54.477 77.6515Z" fill="url(#paint9_linear_35_2407)"/>
<path d="M67.4108 67.9019C63.2932 70.3052 59.9937 76.0981 60.0278 80.8313L60.5889 153.115C60.6229 157.848 63.9819 159.754 68.0996 157.35L130.828 120.726C134.935 118.322 138.234 112.53 138.2 107.796L137.639 35.5128C137.605 30.7795 134.246 28.874 130.129 31.2772L67.3998 67.902L67.4108 67.9019Z" fill="url(#paint10_linear_35_2407)"/>
<path opacity="0.5" d="M80.8251 125.132L117.632 103.647C118.782 102.971 119.808 101.681 120.383 100.196C120.947 98.7104 120.94 97.3267 120.365 96.5168L101.678 70.5356C101.092 69.7258 100.059 69.643 98.8984 70.3076C97.7375 70.9722 96.7115 72.2731 96.1477 73.7585L78.0276 121.236C77.4637 122.71 77.4704 124.094 78.0455 124.915C78.6315 125.725 79.6643 125.808 80.8252 125.143M98.8591 66.7385C101.137 65.4095 103.181 65.5862 104.341 67.184L123.028 93.1652C124.178 94.774 124.203 97.4865 123.086 100.424C121.969 103.362 119.928 105.909 117.661 107.238L80.8536 128.723C78.5757 130.052 76.5322 129.886 75.3712 128.278C74.2102 126.669 74.197 123.956 75.3138 121.019L93.434 73.5521C94.5509 70.6143 96.5812 68.0675 98.8591 66.7385Z" fill="white"/>
<path d="M98.9949 83.3104C98.1297 83.8088 97.4437 85.0092 97.4596 86.0086L97.5516 98.1327C97.5565 99.1211 98.2612 99.513 99.1154 99.0147C99.9696 98.5163 100.667 97.3158 100.651 96.3165L100.559 84.1923C100.554 83.2039 99.8491 82.812 98.9949 83.3104Z" fill="white"/>
<path d="M99.1276 101.541C97.9887 102.205 97.063 103.813 97.0804 105.131C97.0978 106.449 98.0339 106.96 99.1728 106.296C100.312 105.631 101.237 104.023 101.22 102.706C101.203 101.388 100.267 100.865 99.1276 101.53" fill="white"/>
</g>
<defs>
<linearGradient id="paint0_linear_35_2407" x1="223.587" y1="198.963" x2="88.6514" y2="198.963" gradientUnits="userSpaceOnUse">
<stop stop-color="#BABFCA"/>
<stop offset="1" stop-color="#A8AFBD"/>
</linearGradient>
<linearGradient id="paint1_linear_35_2407" x1="218.973" y1="198.964" x2="93.2587" y2="198.964" gradientUnits="userSpaceOnUse">
<stop stop-color="#DDDFE3"/>
<stop offset="1" stop-color="#BABFCA"/>
</linearGradient>
<linearGradient id="paint2_linear_35_2407" x1="259.665" y1="-53.707" x2="76.8992" y2="248.14" gradientUnits="userSpaceOnUse">
<stop stop-color="#DDDFE3"/>
<stop offset="1" stop-color="#BABFCA"/>
</linearGradient>
<linearGradient id="paint3_linear_35_2407" x1="267.567" y1="116.603" x2="192.553" y2="116.968" gradientUnits="userSpaceOnUse">
<stop stop-color="#3AC3EC"/>
<stop offset="1" stop-color="#0099E0"/>
</linearGradient>
<linearGradient id="paint4_linear_35_2407" x1="268.238" y1="205.951" x2="144.877" y2="206.552" gradientUnits="userSpaceOnUse">
<stop stop-color="#3AC3EC"/>
<stop offset="1" stop-color="#0099E0"/>
</linearGradient>
<linearGradient id="paint5_linear_35_2407" x1="155.154" y1="155.499" x2="272.478" y2="253.854" gradientUnits="userSpaceOnUse">
<stop stop-color="#3AC3EC"/>
<stop offset="1" stop-color="#0099E0"/>
</linearGradient>
<linearGradient id="paint6_linear_35_2407" x1="205.284" y1="106.891" x2="126.576" y2="205.22" gradientUnits="userSpaceOnUse">
<stop stop-color="#3AC3EC"/>
<stop offset="1" stop-color="#0099E0"/>
</linearGradient>
<linearGradient id="paint7_linear_35_2407" x1="84.4065" y1="230.177" x2="135.826" y2="233.406" gradientUnits="userSpaceOnUse">
<stop stop-color="#3AC3EC"/>
<stop offset="1" stop-color="#0099E0"/>
</linearGradient>
<linearGradient id="paint8_linear_35_2407" x1="281.518" y1="197.22" x2="-67.8428" y2="-0.715539" gradientUnits="userSpaceOnUse">
<stop stop-color="#BABFCA"/>
<stop offset="0.18" stop-color="#BABFCA" stop-opacity="0.69"/>
<stop offset="0.38" stop-color="#BABFCA" stop-opacity="0.4"/>
<stop offset="0.55" stop-color="#BABFCA" stop-opacity="0.18"/>
<stop offset="0.68" stop-color="#BABFCA" stop-opacity="0.05"/>
<stop offset="0.75" stop-color="#BABFCA" stop-opacity="0"/>
</linearGradient>
<linearGradient id="paint9_linear_35_2407" x1="111.383" y1="75.0157" x2="-7.20701" y2="242.09" gradientUnits="userSpaceOnUse">
<stop stop-color="#66C1E9"/>
<stop offset="0.5" stop-color="#0097DB"/>
<stop offset="1" stop-color="#0097DB"/>
</linearGradient>
<linearGradient id="paint10_linear_35_2407" x1="98.8025" y1="30.4063" x2="99.4257" y2="158.221" gradientUnits="userSpaceOnUse">
<stop stop-color="#C1E6F6"/>
<stop offset="1" stop-color="#5ABCE8"/>
</linearGradient>
<clipPath id="clip0_35_2407">
<rect width="300" height="389" fill="white" transform="matrix(-1 0 0 1 300 0.5)"/>
</clipPath>
<clipPath id="clip1_35_2407">
<rect width="56.0571" height="61.1532" fill="white" transform="translate(178.563 176.147)"/>
</clipPath>
</defs>
</svg>
