<svg width="319" height="367" viewBox="0 0 319 367" fill="none" xmlns="http://www.w3.org/2000/svg">
<g clip-path="url(#clip0_45_1775)">
<g opacity="0.3">
<path d="M86.3689 33.8698L85.3297 169.048C85.2636 177.828 91.3932 188.586 99.0273 193.044L295.356 307.676C302.982 312.126 309.228 308.604 309.294 299.824L310.333 164.646L86.3689 33.8698Z" fill="url(#paint0_linear_45_1775)"/>
<path d="M309.294 299.808L310.334 164.63L317.459 160.531L316.42 295.709C316.383 300.076 314.824 303.14 312.327 304.57L305.202 308.67C307.699 307.239 309.258 304.168 309.294 299.808Z" fill="url(#paint1_linear_45_1775)"/>
<path d="M100.464 6.52627C92.8302 2.06774 86.5922 5.58988 86.5261 14.3856L86.3768 33.8697L310.334 164.638L310.483 145.154C310.549 136.358 304.412 125.608 296.785 121.158L100.464 6.52627Z" fill="url(#paint2_linear_45_1775)"/>
<path d="M99.3347 5.92357C99.1103 5.81389 98.8936 5.71199 98.6769 5.61786C98.5995 5.58645 98.5221 5.54729 98.4447 5.51589C98.2357 5.42954 98.0344 5.351 97.8253 5.28017C97.7789 5.26443 97.7247 5.24089 97.6782 5.22515C97.4304 5.13862 97.1748 5.05981 96.9347 4.98883C96.896 4.98088 96.865 4.97297 96.834 4.96506C96.4467 4.86234 96.0593 4.77513 95.6872 4.71126C95.3695 4.66317 95.0671 4.63067 94.7647 4.61368C94.7026 4.61338 94.6406 4.60532 94.5786 4.60502C94.3071 4.59594 94.0356 4.59461 93.7796 4.60112C93.7331 4.6009 93.6865 4.60842 93.64 4.61595C93.4304 4.63044 93.2209 4.65269 93.0113 4.6827C92.9492 4.69015 92.8794 4.70533 92.8173 4.71278C92.5844 4.75818 92.3514 4.80359 92.1262 4.8723C92.1184 4.87226 92.1029 4.87219 92.0951 4.8799C91.8854 4.94094 91.6756 5.01748 91.4735 5.09406C91.4113 5.11703 91.3569 5.14003 91.2947 5.17076C91.1237 5.24749 90.9527 5.32422 90.7816 5.41647C90.7271 5.44723 90.6727 5.47023 90.6183 5.50099L97.7434 1.40143C97.7434 1.40143 97.7978 1.37067 97.8212 1.35527C97.8523 1.33991 97.8834 1.32455 97.9145 1.30918C98.0778 1.2169 98.2489 1.14017 98.4276 1.06347C98.4587 1.04811 98.4898 1.03275 98.5209 1.01739C98.5442 1.00974 98.5753 1.00214 98.6064 0.986777C98.8085 0.902439 99.0183 0.833652 99.2357 0.772659C99.2435 0.772697 99.2513 0.772733 99.259 0.765015C99.4843 0.70406 99.7172 0.6509 99.9502 0.605495C99.9812 0.605647 100.005 0.590247 100.028 0.59036C100.067 0.590549 100.105 0.590738 100.136 0.575376C100.338 0.545334 100.548 0.523085 100.765 0.508631C100.796 0.508783 100.835 0.501218 100.866 0.493613C100.882 0.493688 100.889 0.493726 100.905 0.493802C101.169 0.479575 101.432 0.480861 101.704 0.497697C101.727 0.497811 101.758 0.497962 101.781 0.498076C101.812 0.498227 101.851 0.506171 101.89 0.50636C102.192 0.523348 102.502 0.555886 102.812 0.603938C103.184 0.660049 103.572 0.747261 103.959 0.857743C103.982 0.857857 104.006 0.865727 104.029 0.873597C104.044 0.873673 104.052 0.881467 104.068 0.889299C104.315 0.960318 104.563 1.03909 104.811 1.12562C104.865 1.1414 104.912 1.1649 104.966 1.18068C105.167 1.25147 105.369 1.33002 105.578 1.41636C105.609 1.42427 105.632 1.43989 105.655 1.44776C105.701 1.47126 105.756 1.49479 105.81 1.51833C106.026 1.61246 106.243 1.71436 106.468 1.82405C106.553 1.86324 106.638 1.90245 106.723 1.9494C107.009 2.09817 107.303 2.25474 107.597 2.42682L303.926 117.058C304.367 117.316 304.807 117.605 305.24 117.902C305.379 118.004 305.519 118.105 305.658 118.207C305.951 118.418 306.237 118.636 306.523 118.863C306.686 118.988 306.84 119.128 306.994 119.261C307.257 119.487 307.52 119.713 307.775 119.947C307.929 120.095 308.091 120.235 308.246 120.384C308.338 120.477 308.439 120.563 308.531 120.657C308.632 120.758 308.724 120.875 308.824 120.976C309.133 121.295 309.442 121.623 309.743 121.966C309.835 122.075 309.943 122.168 310.036 122.277C310.113 122.371 310.19 122.472 310.267 122.565C310.452 122.783 310.63 123.001 310.807 123.227C310.923 123.375 311.046 123.508 311.154 123.656C311.246 123.78 311.331 123.905 311.424 124.029C311.555 124.201 311.678 124.38 311.809 124.551C311.894 124.668 311.986 124.784 312.071 124.909C312.217 125.119 312.348 125.329 312.494 125.539C312.587 125.672 312.672 125.804 312.764 125.944C312.802 125.998 312.841 126.053 312.872 126.107C313.118 126.496 313.357 126.885 313.58 127.282C313.595 127.305 313.61 127.336 313.626 127.36C313.672 127.438 313.718 127.523 313.764 127.609C313.918 127.889 314.079 128.169 314.225 128.449C314.295 128.581 314.356 128.721 314.425 128.853C314.494 128.993 314.563 129.133 314.633 129.273C314.694 129.397 314.755 129.514 314.817 129.638C314.97 129.965 315.116 130.299 315.262 130.626C315.285 130.68 315.316 130.742 315.339 130.797C315.339 130.812 315.354 130.828 315.362 130.843C315.538 131.255 315.707 131.675 315.868 132.087C315.898 132.165 315.921 132.242 315.952 132.32C316.005 132.475 316.059 132.623 316.112 132.778C316.189 132.988 316.266 133.19 316.334 133.4C316.388 133.563 316.434 133.726 316.479 133.889C316.54 134.084 316.594 134.27 316.655 134.464C316.685 134.581 316.731 134.697 316.762 134.822C316.823 135.031 316.861 135.249 316.914 135.458C316.975 135.691 317.036 135.932 317.081 136.165C317.096 136.25 317.127 136.328 317.142 136.414C317.18 136.584 317.195 136.755 317.225 136.926C317.293 137.299 317.361 137.663 317.405 138.036C317.421 138.137 317.443 138.238 317.458 138.346C317.488 138.579 317.503 138.804 317.525 139.037C317.539 139.2 317.562 139.363 317.569 139.526C317.605 140.038 317.626 140.558 317.623 141.062L317.474 160.546L310.349 164.646L310.498 145.162C310.501 144.657 310.48 144.145 310.444 143.626C310.429 143.463 310.414 143.3 310.4 143.137C310.37 142.803 310.333 142.477 310.28 142.143C310.228 141.778 310.168 141.406 310.1 141.033C310.054 140.777 310.009 140.529 309.956 140.272C309.903 140.039 309.842 139.799 309.789 139.566C309.705 139.232 309.621 138.906 309.53 138.572C309.477 138.377 309.415 138.191 309.354 137.997C309.24 137.624 309.117 137.259 308.987 136.886C308.934 136.73 308.88 136.583 308.827 136.427C308.635 135.914 308.436 135.409 308.221 134.904C308.198 134.85 308.168 134.787 308.145 134.733C307.945 134.282 307.738 133.831 307.515 133.388C307.446 133.248 307.377 133.108 307.308 132.968C307.093 132.548 306.87 132.128 306.639 131.724C306.593 131.646 306.547 131.56 306.501 131.475C306.224 130.993 305.931 130.518 305.631 130.051C305.546 129.919 305.454 129.787 305.362 129.647C305.138 129.312 304.915 128.977 304.676 128.65C304.553 128.471 304.422 128.3 304.291 128.129C304.09 127.856 303.882 127.592 303.666 127.327C303.489 127.109 303.312 126.883 303.134 126.673C302.965 126.47 302.787 126.268 302.61 126.073C302.309 125.738 302.008 125.403 301.692 125.083C301.499 124.881 301.306 124.686 301.105 124.491C300.951 124.343 300.796 124.195 300.642 124.054C300.387 123.82 300.124 123.586 299.862 123.368C299.707 123.235 299.553 123.103 299.39 122.978C299.104 122.751 298.811 122.533 298.525 122.314C298.386 122.213 298.247 122.103 298.107 122.01C297.675 121.705 297.234 121.424 296.793 121.166L100.464 6.52635C100.17 6.35427 99.8764 6.1977 99.5901 6.04893C99.505 6.00973 99.4199 5.96277 99.3425 5.92361L99.3347 5.92357Z" fill="url(#paint3_linear_45_1775)"/>
<path d="M290.585 131.328C292.774 132.61 294.542 135.706 294.522 138.235C294.502 140.763 292.706 141.778 290.509 140.496C288.312 139.213 286.543 136.117 286.563 133.588C286.576 131.06 288.38 130.045 290.577 131.327" fill="white"/>
<path d="M276.871 123.318C279.068 124.6 280.829 127.696 280.809 130.225C280.796 132.753 278.992 133.768 276.795 132.486C274.599 131.203 272.837 128.107 272.858 125.586C272.87 123.058 274.674 122.035 276.871 123.318Z" fill="white"/>
<path d="M263.15 115.308C265.346 116.591 267.108 119.686 267.088 122.215C267.075 124.744 265.271 125.759 263.074 124.476C260.877 123.193 259.116 120.097 259.136 117.576C259.149 115.048 260.953 114.025 263.15 115.308Z" fill="white"/>
<path d="M150.213 92.9068C148.589 91.9604 147.259 92.7063 147.242 94.5833C147.233 96.4526 148.533 98.7472 150.157 99.6937L267.236 168.05C268.868 169.004 270.191 168.251 270.208 166.374C270.224 164.497 268.917 162.218 267.293 161.263L150.213 92.9068ZM280.073 185.682C278.116 184.54 276.506 185.439 276.487 187.696C276.476 189.954 278.045 192.715 280.01 193.865C281.974 195.014 283.577 194.107 283.595 191.85C283.606 189.593 282.038 186.831 280.073 185.682ZM172.844 123.772C171.212 122.818 169.89 123.572 169.873 125.449C169.856 127.326 171.163 129.605 172.788 130.559L195.156 143.614C196.781 144.561 198.111 143.815 198.128 141.938C198.137 140.068 196.837 137.774 195.213 136.827L172.844 123.772ZM207.503 144.008C205.879 143.061 204.549 143.807 204.532 145.684C204.515 147.561 205.822 149.848 207.447 150.795L267.104 185.626C268.736 186.58 270.058 185.827 270.075 183.95C270.092 182.073 268.785 179.794 267.16 178.839L207.503 144.008ZM279.933 203.25C277.976 202.108 276.366 203.007 276.347 205.265C276.329 207.522 277.905 210.283 279.87 211.433C281.834 212.583 283.437 211.675 283.456 209.418C283.474 207.161 281.898 204.4 279.933 203.25ZM172.704 141.341C171.072 140.386 169.75 141.14 169.733 143.017C169.716 144.894 171.024 147.173 172.648 148.127L195.016 161.182C196.641 162.129 197.971 161.383 197.988 159.506C197.997 157.637 196.697 155.342 195.073 154.396L172.704 141.341ZM207.363 161.576C205.739 160.63 204.409 161.376 204.392 163.253C204.375 165.13 205.682 167.416 207.307 168.363L266.964 203.194C268.596 204.149 269.918 203.395 269.935 201.518C269.945 199.649 268.645 197.362 267.021 196.407L207.363 161.576ZM157.036 152.411C151.405 149.125 146.801 151.717 146.753 158.201C146.706 164.686 151.229 172.612 156.859 175.897L259.444 235.79C265.075 239.075 269.672 236.484 269.719 229.992C269.766 223.507 265.252 215.589 259.621 212.304L157.036 152.411ZM279.489 260.911C277.532 259.769 275.922 260.668 275.903 262.926C275.885 265.183 277.461 267.944 279.426 269.094C281.39 270.244 282.993 269.336 283.011 267.079C283.03 264.822 281.454 262.061 279.489 260.911ZM206.919 219.245C205.295 218.298 203.965 219.044 203.948 220.921C203.939 222.791 205.238 225.085 206.863 226.032L245.157 248.387C246.781 249.333 248.111 248.588 248.128 246.71C248.145 244.833 246.838 242.547 245.213 241.6L206.919 219.245ZM256.769 248.35C255.145 247.404 253.815 248.15 253.798 250.027C253.781 251.904 255.088 254.191 256.713 255.137L266.52 260.863C268.152 261.817 269.474 261.064 269.491 259.187C269.508 257.31 268.201 255.03 266.576 254.076L256.769 248.35ZM280.205 168.082C278.249 166.94 276.638 167.848 276.62 170.105C276.601 172.362 278.178 175.123 280.142 176.273C282.107 177.423 283.709 176.515 283.728 174.258C283.747 172.001 282.17 169.232 280.205 168.09" fill="url(#paint4_linear_45_1775)"/>
</g>
<path d="M38.3981 193.491C38.3131 203.048 44.9796 214.738 53.2897 219.591L111.885 253.801L201.228 305.964L266.844 344.277C275.027 349.052 281.743 345.397 281.998 336.123C282.005 335.995 282.005 335.861 282.005 335.726L282.628 255.225L283.145 188.695L39.5245 46.4531L38.3981 193.491Z" fill="url(#paint5_linear_45_1775)"/>
<path d="M282.018 335.726L283.152 188.688L290.902 184.232L289.769 331.27C289.726 336.017 288.033 339.354 285.32 340.905L277.569 345.361C280.283 343.803 281.983 340.466 282.018 335.719V335.726Z" fill="url(#paint6_linear_45_1775)"/>
<path d="M54.8621 16.7054C46.5591 11.8526 39.7722 15.6853 39.7013 25.2564L39.5384 46.4531L283.152 188.688L283.315 167.491C283.386 157.92 276.712 146.231 268.416 141.392L54.8621 16.7054Z" fill="url(#paint7_linear_45_1775)"/>
<path d="M53.6297 16.0536C53.3817 15.9331 53.1479 15.8269 52.9141 15.7206C52.8291 15.6852 52.7441 15.6427 52.6591 15.6073C52.4324 15.5152 52.2128 15.4301 51.9861 15.3522C51.9365 15.338 51.8727 15.3097 51.8231 15.2955C51.5539 15.2034 51.2776 15.1184 51.0155 15.0405C50.973 15.0334 50.9376 15.0263 50.9092 15.0122C50.4913 14.8988 50.0662 14.8067 49.6624 14.7359C49.3152 14.6863 48.9893 14.6509 48.6564 14.6296C48.5926 14.6296 48.5218 14.6225 48.4509 14.6225C48.1534 14.6154 47.8629 14.6083 47.5795 14.6225C47.5299 14.6225 47.4803 14.6296 47.4308 14.6367C47.2041 14.6509 46.9774 14.6792 46.7436 14.7075C46.6798 14.7146 46.6019 14.7288 46.531 14.743C46.276 14.7925 46.0209 14.8421 45.7801 14.9201C45.773 14.9201 45.7517 14.9201 45.7447 14.9271C45.518 14.9909 45.2913 15.0759 45.0646 15.1609C45.0008 15.1893 44.937 15.2105 44.8733 15.2459C44.6891 15.331 44.5049 15.416 44.3136 15.5152C44.2569 15.5506 44.1932 15.5718 44.1365 15.6073L51.8869 11.1511C51.8869 11.1511 51.9436 11.1157 51.9719 11.1015C52.0073 11.0874 52.0357 11.0661 52.0711 11.0519C52.2482 10.9528 52.4324 10.8677 52.6308 10.7827C52.6662 10.7686 52.6945 10.7473 52.7299 10.7331C52.7583 10.7261 52.7866 10.719 52.822 10.6977C53.0417 10.6056 53.2684 10.5277 53.5092 10.4639C53.5163 10.4639 53.5234 10.4639 53.5376 10.4568C53.7855 10.3931 54.0335 10.3293 54.2885 10.2868C54.3239 10.2868 54.3452 10.2727 54.3735 10.2727C54.416 10.2727 54.4586 10.2727 54.494 10.2585C54.7136 10.2231 54.9403 10.2018 55.1812 10.1876C55.2166 10.1876 55.2591 10.1806 55.2945 10.1735C55.3087 10.1735 55.3229 10.1735 55.337 10.1735C55.6204 10.1593 55.9109 10.1593 56.2084 10.1735C56.2368 10.1735 56.2651 10.1735 56.2934 10.1735C56.3288 10.1735 56.3714 10.1806 56.4139 10.1806C56.7397 10.2018 57.0798 10.2372 57.4199 10.2868C57.8237 10.3506 58.2487 10.4427 58.6667 10.5631C58.6951 10.5631 58.7163 10.5702 58.7447 10.5773C58.7588 10.5773 58.773 10.5844 58.7872 10.5915C59.0564 10.6694 59.3256 10.7544 59.5948 10.8465C59.6515 10.8607 59.7081 10.889 59.7648 10.9032C59.9845 10.9811 60.2041 11.0661 60.4308 11.1582C60.4662 11.1653 60.4874 11.1865 60.5158 11.1936C60.5654 11.222 60.622 11.2432 60.6858 11.2716C60.9196 11.3707 61.1605 11.4841 61.4013 11.6045C61.4934 11.647 61.5855 11.6895 61.6776 11.7391C61.9893 11.9021 62.3081 12.0721 62.6269 12.2563L276.174 136.943C276.656 137.226 277.131 137.538 277.605 137.864C277.754 137.977 277.91 138.084 278.059 138.197C278.377 138.424 278.689 138.665 279.001 138.912C279.178 139.047 279.348 139.203 279.511 139.345C279.794 139.593 280.085 139.841 280.361 140.088C280.531 140.251 280.708 140.4 280.871 140.563C280.97 140.662 281.084 140.762 281.183 140.861C281.289 140.974 281.395 141.094 281.502 141.208C281.835 141.555 282.175 141.909 282.501 142.285C282.6 142.405 282.72 142.504 282.819 142.625C282.904 142.724 282.989 142.837 283.074 142.936C283.273 143.17 283.471 143.411 283.662 143.659C283.79 143.822 283.925 143.964 284.038 144.127C284.137 144.261 284.229 144.396 284.328 144.53C284.47 144.715 284.605 144.913 284.746 145.097C284.838 145.225 284.938 145.352 285.03 145.487C285.186 145.714 285.334 145.94 285.49 146.174C285.589 146.316 285.682 146.465 285.781 146.613C285.823 146.67 285.866 146.734 285.901 146.79C286.17 147.215 286.425 147.633 286.673 148.066C286.687 148.094 286.709 148.122 286.723 148.151C286.773 148.236 286.822 148.328 286.872 148.42C287.042 148.724 287.212 149.029 287.375 149.334C287.453 149.475 287.516 149.631 287.594 149.773C287.672 149.922 287.743 150.078 287.821 150.226C287.885 150.361 287.956 150.488 288.019 150.623C288.189 150.977 288.345 151.339 288.501 151.7C288.529 151.757 288.558 151.827 288.586 151.884C288.586 151.898 288.6 151.92 288.614 151.934C288.806 152.38 288.99 152.841 289.167 153.287C289.202 153.372 289.224 153.457 289.259 153.542C289.316 153.712 289.373 153.875 289.436 154.038C289.521 154.265 289.606 154.484 289.677 154.711C289.734 154.888 289.783 155.065 289.833 155.242C289.897 155.455 289.961 155.653 290.024 155.866C290.06 155.993 290.109 156.121 290.138 156.255C290.201 156.482 290.244 156.723 290.301 156.95C290.364 157.205 290.435 157.467 290.485 157.722C290.499 157.814 290.534 157.899 290.549 157.991C290.591 158.175 290.605 158.359 290.641 158.551C290.711 158.954 290.789 159.351 290.839 159.755C290.853 159.868 290.882 159.975 290.896 160.095C290.931 160.35 290.945 160.591 290.967 160.846C290.981 161.023 291.009 161.2 291.016 161.377C291.059 161.937 291.08 162.497 291.073 163.049L290.91 184.239L283.159 188.695L283.322 167.498C283.322 166.946 283.301 166.393 283.266 165.826C283.252 165.649 283.23 165.472 283.216 165.295C283.181 164.934 283.145 164.579 283.089 164.211C283.032 163.814 282.968 163.411 282.89 163.007C282.841 162.73 282.791 162.461 282.734 162.178C282.678 161.923 282.614 161.661 282.55 161.413C282.458 161.051 282.366 160.697 282.267 160.329C282.21 160.116 282.139 159.918 282.076 159.705C281.948 159.302 281.82 158.905 281.679 158.494C281.622 158.324 281.565 158.161 281.502 157.998C281.296 157.438 281.077 156.893 280.843 156.34C280.814 156.284 280.786 156.213 280.758 156.156C280.538 155.667 280.319 155.178 280.071 154.69L279.844 154.236C279.61 153.783 279.369 153.322 279.114 152.883C279.065 152.798 279.015 152.706 278.965 152.614C278.661 152.09 278.349 151.572 278.016 151.062C277.924 150.921 277.825 150.772 277.726 150.623C277.485 150.262 277.237 149.893 276.982 149.539C276.847 149.348 276.705 149.157 276.564 148.972C276.344 148.675 276.117 148.384 275.884 148.101C275.692 147.867 275.501 147.619 275.303 147.385C275.119 147.166 274.927 146.946 274.729 146.734C274.403 146.365 274.077 146.004 273.73 145.657C273.517 145.437 273.312 145.225 273.092 145.012C272.922 144.849 272.759 144.693 272.589 144.538C272.313 144.283 272.03 144.027 271.739 143.794C271.569 143.652 271.406 143.503 271.229 143.369C270.917 143.121 270.599 142.887 270.287 142.646C270.138 142.533 269.982 142.419 269.834 142.313C269.366 141.98 268.884 141.675 268.402 141.392L54.8624 16.7054C54.5436 16.5212 54.2248 16.3511 53.9131 16.1882C53.821 16.1457 53.7289 16.0961 53.6438 16.0536H53.6367H53.6297Z" fill="url(#paint8_linear_45_1775)"/>
<path d="M261.665 152.465C264.045 153.861 265.972 157.226 265.951 159.982C265.937 162.73 263.974 163.836 261.587 162.44C259.199 161.044 257.272 157.679 257.294 154.923C257.315 152.167 259.27 151.069 261.658 152.465" fill="white"/>
<path d="M246.745 143.751C249.132 145.147 251.052 148.512 251.031 151.268C251.017 154.017 249.054 155.122 246.667 153.726C244.279 152.331 242.359 148.966 242.381 146.224C242.402 143.482 244.357 142.363 246.745 143.758V143.751Z" fill="white"/>
<path d="M231.818 135.037C234.205 136.433 236.125 139.798 236.104 142.554C236.083 145.303 234.127 146.408 231.74 145.012C229.352 143.617 227.432 140.252 227.454 137.51C227.468 134.761 229.43 133.649 231.818 135.044V135.037Z" fill="white"/>
<path d="M108.973 110.674C107.202 109.647 105.757 110.454 105.743 112.495C105.721 114.535 107.145 117.021 108.916 118.056L236.267 192.407C238.045 193.449 239.483 192.627 239.497 190.587C239.519 188.546 238.095 186.067 236.324 185.025L108.973 110.674ZM250.23 211.592C248.105 210.352 246.348 211.33 246.327 213.781C246.306 216.24 248.02 219.243 250.16 220.49C252.299 221.744 254.042 220.752 254.063 218.301C254.084 215.843 252.37 212.839 250.23 211.592ZM133.592 144.247C131.813 143.213 130.375 144.027 130.361 146.068C130.347 148.108 131.764 150.588 133.535 151.629L157.87 165.826C159.634 166.854 161.086 166.046 161.101 164.006C161.108 161.972 159.698 159.479 157.927 158.444L133.592 144.247ZM171.295 166.259C169.531 165.231 168.079 166.039 168.065 168.079C168.043 170.12 169.467 172.606 171.239 173.641L236.132 211.528C237.91 212.563 239.349 211.748 239.363 209.708C239.37 207.674 237.96 205.188 236.189 204.146L171.295 166.259ZM250.082 230.699C247.956 229.459 246.199 230.437 246.178 232.888C246.157 235.346 247.871 238.35 250.011 239.597C252.136 240.837 253.893 239.859 253.914 237.408C253.936 234.95 252.221 231.946 250.082 230.699ZM133.443 163.361C131.665 162.32 130.227 163.141 130.212 165.182C130.198 167.222 131.615 169.702 133.386 170.743L157.721 184.94C159.485 185.968 160.938 185.16 160.952 183.12C160.973 181.079 159.549 178.593 157.778 177.558L133.443 163.361ZM171.146 185.372C169.382 184.345 167.93 185.153 167.916 187.193C167.909 189.226 169.319 191.72 171.09 192.754L235.983 230.642C237.762 231.677 239.2 230.862 239.214 228.822C239.221 226.788 237.811 224.302 236.04 223.26L171.146 185.372ZM249.6 293.439C247.474 292.199 245.718 293.177 245.696 295.628C245.682 298.086 247.389 301.09 249.529 302.337C251.654 303.577 253.411 302.599 253.433 300.148C253.454 297.697 251.739 294.686 249.6 293.439ZM170.665 248.12C168.901 247.092 167.448 247.9 167.434 249.94C167.427 251.974 168.837 254.467 170.608 255.502L212.265 279.816C214.029 280.843 215.481 280.035 215.495 277.995C215.516 275.955 214.092 273.468 212.321 272.434L170.665 248.12ZM224.889 279.78C223.125 278.753 221.673 279.561 221.659 281.601C221.637 283.641 223.061 286.128 224.833 287.162L235.502 293.389C237.273 294.424 238.718 293.609 238.732 291.569C238.754 289.528 237.33 287.049 235.558 286.007L224.889 279.78ZM250.386 192.471C248.261 191.231 246.504 192.216 246.483 194.674C246.461 197.133 248.176 200.137 250.315 201.383C252.455 202.637 254.198 201.645 254.219 199.194C254.233 196.736 252.526 193.725 250.386 192.485" fill="url(#paint9_linear_45_1775)"/>
<path d="M242.211 316.414C242.176 320.693 245.165 325.935 248.878 328.103L281.997 347.437C282.005 347.309 282.005 347.175 282.005 347.04L282.628 266.539L249.508 247.199C245.782 245.024 242.75 246.745 242.714 251.031L242.211 316.414Z" fill="url(#paint10_linear_45_1775)"/>
<path d="M73.8203 84.486L73.3315 147.453C73.3315 147.58 73.3173 147.68 73.3173 147.779C73.3173 147.885 73.3102 147.977 73.3031 148.098C73.2961 148.204 73.2748 148.296 73.2606 148.409C73.2535 148.501 73.2323 148.608 73.2181 148.707C73.211 148.763 73.211 148.799 73.1898 148.841C73.1898 148.848 73.1827 148.87 73.1827 148.877C73.1827 148.933 73.1756 148.969 73.1544 149.033C73.126 149.139 73.0977 149.252 73.0694 149.359C73.0269 149.479 72.9985 149.585 72.9631 149.706C72.9064 149.812 72.8639 149.925 72.8072 150.032V150.06H72.8001C72.7293 150.244 72.6443 150.372 72.5522 150.527C72.4813 150.634 72.3963 150.719 72.3184 150.811C72.2617 150.875 72.2121 150.967 72.1342 151.03C71.9146 151.257 71.6808 151.47 71.4258 151.611L66.58 154.389C66.8563 154.233 67.0901 154.034 67.2884 153.808C67.3593 153.744 67.4159 153.652 67.4797 153.588C67.6639 153.361 67.8339 153.113 67.9614 152.823C67.9685 152.823 67.9685 152.816 67.9685 152.816C68.1315 152.469 68.259 152.086 68.344 151.668V151.633C68.4432 151.215 68.4857 150.747 68.4857 150.237L68.9745 87.2702C68.9745 86.7531 68.9391 86.2147 68.8612 85.6833C68.7762 85.1449 68.6486 84.6136 68.4928 84.0681H68.4857C68.3228 83.5226 68.1386 82.9841 67.9119 82.4457C67.7206 82.0065 67.5222 81.5814 67.2884 81.1776C67.253 81.0784 67.2034 80.9934 67.1538 80.9013C67.1467 80.873 67.1255 80.8659 67.1184 80.8375C66.835 80.3487 66.5233 79.8457 66.1762 79.3994C65.8361 78.9176 65.4748 78.4784 65.0922 78.0675C65.0852 78.0675 65.0851 78.0604 65.0639 78.0604C64.6955 77.6495 64.2846 77.2741 63.8808 76.934L63.8525 76.9057C63.4345 76.5585 63.0023 76.261 62.556 75.9988L7.89222 44.1046C7.6726 43.977 7.45296 43.8708 7.2546 43.7787C7.24752 43.7716 7.22627 43.7716 7.21918 43.7503C7.02082 43.6511 6.8083 43.5661 6.60993 43.4953C6.60285 43.4953 6.58158 43.4953 6.5745 43.4882C6.38322 43.4315 6.19194 43.3819 6.00066 43.3323C5.99358 43.3253 5.96525 43.3253 5.94399 43.3253C5.7598 43.2828 5.58976 43.2544 5.40556 43.2332C5.37723 43.2332 5.37014 43.2261 5.33472 43.2261C5.17178 43.219 5.00883 43.2119 4.84589 43.2261H4.75378C4.59084 43.2332 4.42789 43.2544 4.26495 43.2828C4.23662 43.2898 4.20828 43.3111 4.17995 43.3111C4.04534 43.3394 3.91783 43.3749 3.7974 43.4174C3.6132 43.4811 3.45026 43.552 3.28732 43.6441L8.13309 40.867C8.29604 40.7819 8.45898 40.704 8.62192 40.6473C8.62192 40.6473 8.62899 40.6473 8.65025 40.6402C8.77776 40.6048 8.8982 40.5552 9.02572 40.534C9.05405 40.534 9.08241 40.5269 9.11075 40.5269C9.23119 40.4986 9.3587 40.4702 9.49329 40.4631H9.69167C9.69167 40.4631 9.77669 40.4561 9.81211 40.4561C9.91837 40.4561 10.0105 40.4631 10.1309 40.4702H10.1876C10.1876 40.4702 10.223 40.4773 10.2443 40.4773C10.3009 40.4773 10.3718 40.4844 10.4285 40.4844C10.5205 40.4915 10.6197 40.5127 10.7118 40.5411C10.7402 40.5411 10.7685 40.5482 10.7968 40.5482C10.8039 40.5482 10.8252 40.5552 10.8535 40.5552C10.8889 40.5623 10.9385 40.5623 10.9739 40.5836C11.059 40.6119 11.1582 40.6261 11.2503 40.6544C11.3069 40.6828 11.3565 40.6898 11.4132 40.7253H11.4486C11.4486 40.7253 11.4769 40.7323 11.5053 40.7536C11.5903 40.7819 11.6682 40.8103 11.7603 40.8528C11.8454 40.8811 11.9233 40.9236 12.0154 40.9591C12.0225 40.9591 12.0437 40.9661 12.0508 40.9874C12.0579 40.9874 12.0791 40.9874 12.0862 40.9945C12.1571 41.0228 12.2067 41.0512 12.2704 41.0795C12.3554 41.1149 12.4546 41.1645 12.5255 41.2141C12.5963 41.2495 12.6601 41.2849 12.7238 41.3204L67.3734 73.2359C67.3734 73.2359 67.4089 73.2642 67.4301 73.2642C67.5293 73.3209 67.6214 73.3918 67.7064 73.4484C67.7985 73.5051 67.8977 73.576 67.9898 73.6326C68.0748 73.7035 68.174 73.7672 68.2661 73.8381C68.3582 73.9089 68.4574 73.9727 68.5495 74.0577C68.5849 74.086 68.6345 74.1144 68.6557 74.1427C68.6628 74.1498 68.6841 74.1711 68.6911 74.1711C68.7266 74.2065 68.7832 74.2561 68.8257 74.2986C68.9178 74.3836 69.017 74.4615 69.1091 74.5465C69.2012 74.6457 69.3004 74.7307 69.3925 74.8228C69.4846 74.9078 69.5838 75.007 69.6688 75.0991L69.8884 75.3187C69.8884 75.3187 69.9239 75.3542 69.9451 75.3754C70.0301 75.4746 70.1081 75.5667 70.1931 75.6659C70.2852 75.7651 70.3702 75.8572 70.4481 75.9563C70.5331 76.0626 70.611 76.1547 70.6961 76.2751C70.7882 76.4027 70.8873 76.5231 70.9794 76.6506C70.9794 76.6506 70.9794 76.6577 70.9865 76.6577C71.1211 76.849 71.2628 77.0403 71.3762 77.2315C71.5391 77.4937 71.702 77.7416 71.8579 78.0179C71.865 78.0463 71.8863 78.0746 71.8933 78.1029C71.9004 78.1313 71.9217 78.1596 71.9287 78.1667C72.0138 78.3013 72.0917 78.443 72.1555 78.5918C72.2121 78.6909 72.2475 78.783 72.3042 78.8822C72.3326 78.9106 72.3397 78.946 72.3609 78.9814C72.4176 79.0877 72.4672 79.2081 72.5238 79.3285C72.5593 79.4348 72.6159 79.5269 72.6584 79.6473C72.6655 79.6544 72.6655 79.6828 72.6868 79.704C72.6868 79.704 72.6868 79.7111 72.6939 79.7111C72.7222 79.7961 72.7576 79.8741 72.786 79.9591C72.8214 80.0582 72.871 80.1574 72.9064 80.2779C72.9418 80.3841 72.9914 80.4762 73.0269 80.5967C73.0623 80.7029 73.1119 80.8163 73.1473 80.9226C73.1756 81.0501 73.211 81.1493 73.2394 81.2697C73.2465 81.2768 73.2465 81.3051 73.2677 81.3264V81.3547C73.2961 81.4397 73.3244 81.5389 73.3527 81.6168C73.3811 81.7231 73.4094 81.8435 73.4377 81.964C73.4661 82.0915 73.4944 82.1907 73.5228 82.3111C73.5511 82.4386 73.5794 82.5378 73.5865 82.6582C73.6149 82.7645 73.6219 82.8566 73.6432 82.9771C73.6715 83.1046 73.6786 83.2038 73.6999 83.3242C73.707 83.4305 73.7282 83.5438 73.7282 83.643C73.7353 83.7493 73.7566 83.8626 73.7566 83.9618C73.7636 84.0681 73.7636 84.1814 73.7636 84.2806C73.7707 84.3869 73.7707 84.479 73.7707 84.5781L73.7495 84.5427L73.8203 84.486Z" fill="url(#paint11_linear_45_1775)"/>
<path d="M62.5418 75.9915C66.1265 78.0814 69.0028 83.1326 68.9745 87.2558L68.4856 150.223C68.4573 154.346 65.5314 156.004 61.9467 153.914L7.30414 122.019C3.72648 119.929 0.850189 114.878 0.885612 110.755L1.37444 47.7882C1.40278 43.6651 4.32867 42.0073 7.91341 44.0972L62.5559 75.9986H62.5488L62.5418 75.9915Z" fill="url(#paint12_linear_45_1775)"/>
<path d="M32.6098 110.323C31.9652 109.947 31.448 109.041 31.448 108.297L31.4834 104.223C30.5837 103.189 29.9603 101.765 29.9673 100.525C29.9744 98.8105 31.2071 98.1233 32.7019 98.9947C34.1968 99.8661 35.394 101.97 35.3799 103.685C35.3799 104.924 34.7352 105.626 33.8284 105.59L33.793 109.664C33.793 110.408 33.2616 110.705 32.6169 110.323M19.5036 85.3855C18.6038 84.8612 17.8742 85.2792 17.8742 86.3064L17.7254 105.647C17.7254 106.681 18.4338 107.942 19.3265 108.46L45.8224 123.932C46.7221 124.456 47.4518 124.045 47.4518 123.011L47.6006 103.67C47.6006 102.643 46.8921 101.382 45.9924 100.858L19.4965 85.3855" fill="white"/>
<path d="M32.879 75.7012C40.1477 79.9448 46.0136 90.2173 45.9428 98.5982C45.9428 98.8249 45.9428 99.0375 45.9215 99.25L43.1869 97.5214C43.194 97.3018 43.2011 97.0822 43.2011 96.8625C43.2578 89.5726 38.3978 81.6805 32.0785 77.9895C25.752 74.2914 21.3455 76.9056 21.2888 84.1955C21.2888 84.4222 21.2888 84.6418 21.303 84.8685L19.5815 83.8696C19.5815 83.6429 19.5673 83.4233 19.5744 83.1966C19.6381 74.8157 25.6104 71.4505 32.879 75.6941" fill="white"/>
<path d="M58.8858 134.648L73.3098 126.359L139.443 140.032L125.019 148.321L58.8858 134.648Z" fill="url(#paint13_linear_45_1775)"/>
<path d="M125.012 148.321L190.763 211.649C190.735 215.744 190.126 293.538 190.097 298.575C190.055 303.598 181.05 335.464 123.602 331.624C66.6219 268.65 58.1772 226.597 58.2197 221.581C58.2623 216.544 58.8573 138.757 58.8857 134.655L125.019 148.328L125.012 148.321Z" fill="url(#paint14_linear_45_1775)"/>
<path d="M124.828 173.768L170.927 218.173C170.912 221.043 170.487 275.586 170.459 279.114C170.431 282.635 164.111 304.979 123.85 302.28C83.901 258.137 77.9784 228.651 78.0068 225.13C78.0351 221.609 78.4602 167.059 78.4743 164.19L124.835 173.775L124.828 173.768Z" fill="url(#paint15_linear_45_1775)"/>
<path d="M125.012 148.321L139.436 140.032L205.187 203.36L190.763 211.649L125.019 148.321H125.012Z" fill="url(#paint16_linear_45_1775)"/>
<path d="M205.187 203.36L190.763 211.649C190.735 215.744 190.126 293.538 190.097 298.575C190.097 298.759 190.076 298.979 190.055 299.234V299.298C190.026 299.553 189.984 299.829 189.934 300.134C189.934 300.176 189.92 300.226 189.906 300.268C189.856 300.523 189.793 300.793 189.736 301.069C189.686 301.281 189.615 301.515 189.552 301.742C189.502 301.926 189.453 302.11 189.389 302.316C189.233 302.819 189.056 303.364 188.843 303.931C188.68 304.37 188.496 304.831 188.291 305.305C188.234 305.44 188.163 305.582 188.106 305.716C187.958 306.035 187.809 306.361 187.639 306.701C187.483 307.013 187.313 307.332 187.143 307.657C186.994 307.927 186.853 308.196 186.697 308.472C186.512 308.798 186.3 309.138 186.094 309.478C185.917 309.762 185.747 310.052 185.549 310.342C185.386 310.583 185.216 310.831 185.046 311.072C184.812 311.419 184.571 311.752 184.309 312.099C184.125 312.347 183.92 312.609 183.714 312.865C183.445 313.212 183.169 313.545 182.871 313.892C182.651 314.154 182.425 314.409 182.191 314.671C181.886 315.018 181.56 315.358 181.242 315.698C180.994 315.96 180.739 316.215 180.476 316.478C180.129 316.825 179.754 317.165 179.385 317.512C179.116 317.76 178.84 318.015 178.557 318.27C178.153 318.624 177.706 318.971 177.274 319.326C176.984 319.559 176.708 319.793 176.41 320.02C175.907 320.402 175.369 320.771 174.837 321.153C174.568 321.345 174.313 321.536 174.023 321.72C173.187 322.273 172.315 322.825 171.387 323.35L185.811 315.061C186.732 314.536 187.603 313.984 188.447 313.431C188.723 313.247 188.978 313.056 189.247 312.865C189.785 312.489 190.324 312.121 190.834 311.731C191.139 311.504 191.422 311.271 191.705 311.037C192.145 310.683 192.577 310.335 192.988 309.981C193.278 309.726 193.547 309.478 193.817 309.223C194.192 308.876 194.56 308.536 194.908 308.189C195.17 307.927 195.418 307.679 195.659 307.417C195.991 307.069 196.31 306.729 196.615 306.382C196.842 306.12 197.075 305.865 197.295 305.603C197.585 305.256 197.862 304.916 198.138 304.576C198.344 304.321 198.535 304.066 198.726 303.811C198.981 303.463 199.229 303.123 199.463 302.776C199.633 302.535 199.803 302.287 199.966 302.047C200.023 301.962 200.093 301.869 200.143 301.777C200.271 301.579 200.384 301.381 200.497 301.182C200.71 300.849 200.915 300.509 201.099 300.176C201.262 299.9 201.397 299.631 201.546 299.362C201.716 299.043 201.886 298.724 202.042 298.412C202.091 298.313 202.155 298.2 202.205 298.101C202.318 297.874 202.41 297.647 202.509 297.427C202.566 297.293 202.637 297.151 202.693 297.017C202.892 296.556 203.076 296.11 203.239 295.671C203.239 295.663 203.239 295.656 203.246 295.642C203.459 295.068 203.643 294.537 203.791 294.034C203.799 293.992 203.827 293.949 203.834 293.906C203.884 293.744 203.912 293.609 203.954 293.46C204.018 293.233 204.082 293 204.139 292.787C204.146 292.738 204.167 292.688 204.181 292.638C204.231 292.405 204.273 292.192 204.316 291.98C204.316 291.937 204.33 291.887 204.344 291.845V291.817C204.387 291.59 204.422 291.377 204.45 291.179C204.45 291.122 204.465 291.059 204.465 291.009C204.465 290.981 204.465 290.966 204.465 290.945C204.465 290.91 204.465 290.889 204.472 290.853C204.479 290.754 204.486 290.655 204.5 290.556C204.5 290.463 204.5 290.378 204.5 290.3V290.286C204.514 287.849 204.67 268.339 204.819 248.403C204.819 247.121 204.833 245.831 204.847 244.549C204.89 238.761 204.939 233.03 204.982 227.766C204.982 226.597 204.996 225.442 205.01 224.323C205.01 223.763 205.01 223.211 205.017 222.658C205.024 221.021 205.038 219.449 205.06 217.961C205.067 215.97 205.088 214.128 205.102 212.471C205.109 210.806 205.123 209.332 205.13 208.064C205.13 207.433 205.13 206.86 205.138 206.335C205.145 204.777 205.152 203.75 205.152 203.36H205.18H205.187Z" fill="url(#paint17_linear_45_1775)"/>
<path opacity="0.3" d="M205.187 203.36L190.763 211.649C190.735 215.744 190.126 293.538 190.097 298.575C190.097 298.759 190.076 298.979 190.055 299.234V299.298C190.026 299.553 189.984 299.829 189.934 300.134C189.934 300.176 189.92 300.226 189.906 300.268C189.856 300.523 189.793 300.793 189.736 301.069C189.686 301.281 189.615 301.515 189.552 301.742C189.502 301.926 189.453 302.11 189.389 302.316C189.233 302.819 189.056 303.364 188.843 303.931C188.68 304.37 188.496 304.831 188.291 305.305C188.234 305.44 188.163 305.582 188.106 305.716C187.958 306.035 187.809 306.361 187.639 306.701C187.483 307.013 187.313 307.332 187.143 307.657C186.994 307.927 186.853 308.196 186.697 308.472C186.512 308.798 186.3 309.138 186.094 309.478C185.917 309.762 185.747 310.052 185.549 310.342C185.386 310.583 185.216 310.831 185.046 311.072C184.812 311.419 184.571 311.752 184.309 312.099C184.125 312.347 183.92 312.609 183.714 312.865C183.445 313.212 183.169 313.545 182.871 313.892C182.651 314.154 182.425 314.409 182.191 314.671C181.886 315.018 181.56 315.358 181.242 315.698C180.994 315.96 180.739 316.215 180.476 316.478C180.129 316.825 179.754 317.165 179.385 317.512C179.116 317.76 178.84 318.015 178.557 318.27C178.153 318.624 177.706 318.971 177.274 319.326C176.984 319.559 176.708 319.793 176.41 320.02C175.907 320.402 175.369 320.771 174.837 321.153C174.568 321.345 174.313 321.536 174.023 321.72C173.187 322.273 172.315 322.825 171.387 323.35L185.811 315.061C186.732 314.536 187.603 313.984 188.447 313.431C188.723 313.247 188.978 313.056 189.247 312.865C189.785 312.489 190.324 312.121 190.834 311.731C191.139 311.504 191.422 311.271 191.705 311.037C192.145 310.683 192.577 310.335 192.988 309.981C193.278 309.726 193.547 309.478 193.817 309.223C194.192 308.876 194.56 308.536 194.908 308.189C195.17 307.927 195.418 307.679 195.659 307.417C195.991 307.069 196.31 306.729 196.615 306.382C196.842 306.12 197.075 305.865 197.295 305.603C197.585 305.256 197.862 304.916 198.138 304.576C198.344 304.321 198.535 304.066 198.726 303.811C198.981 303.463 199.229 303.123 199.463 302.776C199.633 302.535 199.803 302.287 199.966 302.047C200.023 301.962 200.093 301.869 200.143 301.777C200.271 301.579 200.384 301.381 200.497 301.182C200.71 300.849 200.915 300.509 201.099 300.176C201.262 299.9 201.397 299.631 201.546 299.362C201.716 299.043 201.886 298.724 202.042 298.412C202.091 298.313 202.155 298.2 202.205 298.101C202.318 297.874 202.41 297.647 202.509 297.427C202.566 297.293 202.637 297.151 202.693 297.017C202.892 296.556 203.076 296.11 203.239 295.671C203.239 295.663 203.239 295.656 203.246 295.642C203.459 295.068 203.643 294.537 203.791 294.034C203.799 293.992 203.827 293.949 203.834 293.906C203.884 293.744 203.912 293.609 203.954 293.46C204.018 293.233 204.082 293 204.139 292.787C204.146 292.738 204.167 292.688 204.181 292.638C204.231 292.405 204.273 292.192 204.316 291.98C204.316 291.937 204.33 291.887 204.344 291.845V291.817C204.387 291.59 204.422 291.377 204.45 291.179C204.45 291.122 204.465 291.059 204.465 291.009C204.465 290.981 204.465 290.966 204.465 290.945C204.465 290.91 204.465 290.889 204.472 290.853C204.479 290.754 204.486 290.655 204.5 290.556C204.5 290.463 204.5 290.378 204.5 290.3V290.286C204.514 287.849 204.67 268.339 204.819 248.403C204.819 247.121 204.833 245.831 204.847 244.549C204.89 238.761 204.939 233.03 204.982 227.766C204.982 226.597 204.996 225.442 205.01 224.323C205.01 223.763 205.01 223.211 205.017 222.658C205.024 221.021 205.038 219.449 205.06 217.961C205.067 215.97 205.088 214.128 205.102 212.471C205.109 210.806 205.123 209.332 205.13 208.064C205.13 207.433 205.13 206.86 205.138 206.335C205.145 204.777 205.152 203.75 205.152 203.36H205.18H205.187Z" fill="url(#paint18_linear_45_1775)"/>
<path d="M129.95 205.4C125.182 200.441 119.762 201.752 117.843 208.319C115.923 214.886 118.232 224.224 123 229.183C127.768 234.142 133.18 232.838 135.107 226.264C137.027 219.697 134.725 210.345 129.957 205.393L129.95 205.4Z" fill="white"/>
<path d="M104.402 245.559C104.283 245.537 104.197 245.736 104.299 245.8L145.515 271.449C147.959 272.866 149.567 270.818 148.469 267.666C144.36 255.976 136.014 244.726 126.323 239.073C122.519 236.846 118.896 235.718 115.652 235.585C115.394 235.575 115.176 235.767 115.137 236.021C114.637 239.209 113.292 241.368 111.686 243.124C109.793 245.195 106.822 246.015 104.402 245.559Z" fill="white"/>
<path d="M97.4393 236.296C100.287 241.807 105.388 243.515 108.845 240.1C112.303 236.685 112.791 229.445 109.95 223.933C109.405 222.871 108.767 221.95 108.08 221.177L108.286 218.117C108.314 217.706 108.222 217.267 108.038 216.906L106.869 214.639L108.293 213.236C108.767 212.768 108.831 211.783 108.442 211.033L107.273 208.765L108.697 207.363C109.171 206.895 109.235 205.91 108.845 205.159L106.507 200.618C106.118 199.86 105.424 199.634 104.956 200.101L102.115 202.914C101.888 203.14 101.747 203.495 101.718 203.906L100.712 218.726C99.9543 219.017 99.2246 219.484 98.5587 220.143C95.1014 223.558 94.6126 230.798 97.4535 236.31L97.4393 236.296ZM104.531 233.781C105.239 235.162 105.119 236.969 104.255 237.819C103.39 238.669 102.115 238.244 101.407 236.87C100.698 235.488 100.819 233.682 101.683 232.831C102.547 231.981 103.822 232.399 104.531 233.781Z" fill="white"/>
<mask id="mask0_45_1775" style="mask-type:luminance" maskUnits="userSpaceOnUse" x="95" y="199" width="17" height="43">
<path d="M97.4393 236.296C100.287 241.807 105.388 243.515 108.845 240.1C112.303 236.685 112.791 229.445 109.95 223.933C109.405 222.871 108.767 221.95 108.08 221.177L108.286 218.117C108.314 217.706 108.222 217.267 108.038 216.906L106.869 214.639L108.293 213.236C108.767 212.768 108.831 211.783 108.442 211.033L107.273 208.765L108.697 207.363C109.171 206.895 109.235 205.91 108.845 205.159L106.507 200.618C106.118 199.86 105.424 199.634 104.956 200.101L102.115 202.914C101.888 203.14 101.747 203.495 101.718 203.906L100.712 218.726C99.9543 219.017 99.2246 219.484 98.5587 220.143C95.1014 223.558 94.6126 230.798 97.4535 236.31L97.4393 236.296ZM104.531 233.781C105.239 235.162 105.119 236.969 104.255 237.819C103.39 238.669 102.115 238.244 101.407 236.87C100.698 235.488 100.819 233.682 101.683 232.831C102.547 231.981 103.822 232.399 104.531 233.781Z" fill="white"/>
</mask>
<g mask="url(#mask0_45_1775)">
<path d="M109.455 239.413L110 238.648L110.475 237.805L110.872 236.905L111.205 235.941L111.46 234.935L111.644 233.88L111.757 232.796L111.8 231.691L111.757 230.564L111.651 229.431L111.46 228.297L111.197 227.171L110.857 226.066L110.439 224.982L109.951 223.926L109.738 223.536L109.526 223.154L109.299 222.793L109.065 222.438L108.831 222.098L108.583 221.772L108.335 221.468L108.08 221.17L108.293 218.11V217.954L108.286 217.798L108.272 217.642L108.243 217.486L108.208 217.33L108.165 217.182L108.109 217.04L108.038 216.898L106.869 214.631L108.293 213.229L108.449 213.03L108.569 212.789L108.647 212.52L108.69 212.23V211.925L108.647 211.62L108.569 211.316L108.442 211.018L107.273 208.751L108.69 207.348L108.852 207.15L108.973 206.909L109.051 206.64L109.093 206.349V206.045L109.051 205.74L108.966 205.436L108.838 205.138L106.5 200.604L106.338 200.342L106.16 200.136L105.962 199.981L105.757 199.881L105.544 199.839L105.331 199.86L105.133 199.938L104.942 200.08L102.101 202.892L102.023 202.984L101.945 203.084L101.881 203.197L101.825 203.317L101.782 203.452L101.747 203.587L101.718 203.735L101.704 203.884L100.691 218.705L100.408 218.825L100.131 218.96L99.8552 219.109L99.5789 219.279L99.3168 219.463L99.0547 219.668L98.7925 219.888L98.5446 220.122L97.9282 220.809L97.3898 221.574L96.9152 222.41L96.5113 223.317L96.1854 224.273L95.9233 225.286L95.7391 226.335L95.6258 227.419L95.5903 228.531L95.6258 229.65L95.7391 230.784L95.9233 231.917L96.1854 233.044L96.5255 234.156L96.9435 235.24L97.4394 236.296L97.9991 237.28L98.6083 238.18L99.253 238.988L99.9331 239.696L100.649 240.305L101.385 240.823L102.143 241.233L102.916 241.545L103.688 241.751L104.467 241.843L105.239 241.836L106.005 241.715L106.755 241.481L107.478 241.134L108.179 240.674L108.845 240.093L109.455 239.413Z" fill="white"/>
</g>
<path d="M297.992 295.279L297.496 358.798C297.496 358.926 297.482 359.032 297.482 359.124C297.482 359.23 297.475 359.329 297.468 359.443C297.461 359.549 297.44 359.641 297.425 359.762C297.418 359.861 297.397 359.967 297.383 360.059C297.376 360.116 297.376 360.158 297.355 360.194C297.355 360.201 297.347 360.222 297.347 360.236C297.347 360.293 297.34 360.335 297.319 360.392C297.291 360.498 297.262 360.612 297.234 360.718C297.192 360.846 297.163 360.952 297.128 361.065C297.071 361.171 297.029 361.285 296.972 361.391V361.419H296.965C296.894 361.604 296.809 361.738 296.71 361.894C296.639 362 296.554 362.085 296.476 362.184C296.419 362.248 296.37 362.34 296.292 362.404C296.065 362.638 295.838 362.843 295.576 362.992L290.688 365.798C290.971 365.642 291.198 365.443 291.404 365.21C291.474 365.146 291.531 365.054 291.595 364.99C291.779 364.756 291.956 364.508 292.084 364.218C292.091 364.218 292.091 364.211 292.091 364.211C292.261 363.864 292.381 363.481 292.473 363.056V363.02C292.573 362.595 292.615 362.121 292.615 361.611L293.111 298.091C293.111 297.567 293.076 297.029 292.991 296.49C292.906 295.952 292.771 295.406 292.622 294.861H292.615C292.452 294.308 292.261 293.77 292.034 293.224C291.843 292.778 291.644 292.353 291.404 291.949C291.368 291.85 291.319 291.765 291.269 291.666C291.262 291.637 291.241 291.63 291.234 291.595C290.943 291.099 290.631 290.596 290.284 290.143C289.937 289.661 289.576 289.214 289.193 288.796C289.186 288.796 289.186 288.789 289.165 288.789C288.789 288.371 288.379 287.996 287.975 287.656L287.946 287.628C287.521 287.28 287.089 286.976 286.636 286.714L231.497 254.543C231.278 254.416 231.058 254.309 230.853 254.21C230.846 254.203 230.824 254.203 230.81 254.182C230.612 254.083 230.399 253.998 230.194 253.927C230.187 253.927 230.165 253.927 230.151 253.92C229.96 253.863 229.769 253.813 229.57 253.764C229.563 253.757 229.528 253.757 229.514 253.757C229.329 253.714 229.159 253.686 228.975 253.665C228.947 253.665 228.933 253.657 228.904 253.657C228.741 253.65 228.579 253.643 228.416 253.657H228.316C228.153 253.665 227.991 253.686 227.821 253.714C227.792 253.721 227.764 253.742 227.735 253.742C227.601 253.771 227.473 253.806 227.353 253.849C227.169 253.913 227.006 253.983 226.843 254.075L231.731 251.27C231.894 251.185 232.057 251.107 232.227 251.05C232.227 251.05 232.234 251.05 232.255 251.043C232.383 251.008 232.503 250.958 232.631 250.937C232.659 250.937 232.688 250.93 232.716 250.93C232.843 250.902 232.964 250.873 233.098 250.866H233.304C233.304 250.866 233.389 250.859 233.431 250.859C233.538 250.859 233.637 250.866 233.75 250.873H233.807C233.807 250.873 233.849 250.88 233.864 250.88C233.92 250.88 233.991 250.887 234.048 250.887C234.147 250.895 234.239 250.916 234.338 250.944C234.367 250.944 234.395 250.951 234.423 250.951C234.43 250.951 234.452 250.958 234.48 250.958C234.515 250.965 234.565 250.965 234.607 250.987C234.692 251.015 234.792 251.029 234.891 251.057C234.947 251.086 234.997 251.1 235.054 251.128H235.096C235.096 251.128 235.125 251.135 235.153 251.157C235.238 251.185 235.316 251.213 235.415 251.256C235.5 251.284 235.578 251.327 235.677 251.362C235.684 251.362 235.706 251.369 235.72 251.39C235.727 251.39 235.748 251.39 235.755 251.398C235.826 251.426 235.883 251.454 235.939 251.483C236.024 251.525 236.124 251.568 236.201 251.617C236.272 251.653 236.336 251.688 236.407 251.723L291.538 283.915C291.538 283.915 291.574 283.944 291.595 283.944C291.694 284 291.786 284.071 291.878 284.128C291.977 284.184 292.07 284.255 292.169 284.312C292.254 284.383 292.353 284.447 292.452 284.517C292.551 284.588 292.643 284.652 292.743 284.744C292.785 284.772 292.828 284.801 292.849 284.829C292.856 284.836 292.877 284.858 292.891 284.858C292.927 284.893 292.991 284.943 293.026 284.985C293.125 285.07 293.217 285.148 293.316 285.24C293.416 285.339 293.508 285.424 293.607 285.523C293.706 285.608 293.798 285.708 293.883 285.807L294.103 286.026C294.103 286.026 294.138 286.062 294.159 286.083C294.244 286.182 294.322 286.274 294.407 286.374C294.507 286.473 294.592 286.565 294.662 286.664C294.747 286.77 294.825 286.869 294.91 286.983C295.01 287.11 295.102 287.238 295.201 287.358C295.201 287.358 295.201 287.365 295.208 287.365C295.343 287.557 295.484 287.755 295.605 287.946C295.768 288.208 295.931 288.456 296.094 288.74C296.101 288.768 296.122 288.796 296.129 288.825C296.136 288.853 296.157 288.881 296.171 288.896C296.256 289.03 296.334 289.179 296.398 289.321C296.455 289.42 296.49 289.512 296.554 289.611C296.582 289.64 296.589 289.682 296.611 289.71C296.667 289.817 296.717 289.944 296.774 290.057C296.809 290.164 296.873 290.263 296.908 290.376C296.915 290.383 296.915 290.412 296.937 290.433C296.937 290.433 296.937 290.44 296.944 290.44C296.972 290.525 297.007 290.603 297.043 290.688C297.078 290.787 297.128 290.893 297.163 291.007C297.199 291.113 297.248 291.212 297.284 291.326C297.319 291.432 297.369 291.545 297.404 291.652C297.433 291.779 297.468 291.885 297.503 291.999C297.51 292.006 297.51 292.034 297.532 292.055V292.084C297.56 292.169 297.588 292.268 297.617 292.346C297.645 292.452 297.673 292.58 297.702 292.693C297.73 292.82 297.758 292.927 297.787 293.04C297.815 293.168 297.843 293.274 297.85 293.387C297.879 293.493 297.886 293.593 297.907 293.706C297.936 293.834 297.943 293.94 297.964 294.053C297.971 294.159 297.992 294.273 297.992 294.372C297.999 294.478 298.021 294.592 298.021 294.691C298.028 294.797 298.028 294.91 298.028 295.01C298.035 295.116 298.035 295.215 298.035 295.307L298.013 295.272L297.992 295.279Z" fill="url(#paint19_linear_45_1775)"/>
<path d="M286.614 286.713C290.234 288.824 293.132 293.918 293.104 298.077L292.608 361.596C292.579 365.755 289.625 367.427 286.005 365.315L230.881 333.145C227.275 331.034 224.37 325.94 224.406 321.781L224.901 258.262C224.93 254.103 227.884 252.431 231.504 254.543L286.621 286.727H286.614V286.713Z" fill="url(#paint20_linear_45_1775)"/>
<path d="M236.945 300.5C236.697 301.746 236.562 303.085 236.527 304.509L236.506 308.718C236.562 309.858 237.299 311.091 238.213 311.537C239.169 312.005 239.949 311.424 239.956 310.248L239.977 306.691C239.984 305.374 240.104 304.155 240.324 303.022C240.53 301.973 239.934 300.549 239.006 299.848C238.886 299.756 238.766 299.678 238.645 299.621C237.852 299.232 237.129 299.572 236.952 300.493L236.945 300.5Z" fill="white"/>
<path d="M256.675 314.832C256.675 313.649 255.917 312.324 254.961 311.856C254.004 311.389 253.232 311.963 253.225 313.153L253.211 315.363C253.182 321.208 254.011 327.421 255.683 333.712L256.101 335.278C256.356 336.255 257.008 337.091 257.702 337.431C257.908 337.53 258.12 337.587 258.326 337.594C259.218 337.608 259.672 336.595 259.332 335.327L258.914 333.761C257.398 328.037 256.633 322.377 256.661 317.056L256.675 314.846V314.832Z" fill="white"/>
<path d="M261.84 319.564L261.854 317.354C261.882 312.643 258.808 307.315 254.996 305.452C251.185 303.589 248.068 305.905 248.046 310.616L248.032 312.827C248.011 316.362 248.273 320.01 248.812 323.723C248.953 324.679 249.584 325.607 250.313 325.968C251.327 326.464 252.085 325.65 251.893 324.318C251.412 320.924 251.178 317.588 251.199 314.364L251.213 312.154C251.227 309.603 252.913 308.349 254.982 309.355C257.051 310.361 258.709 313.252 258.694 315.802L258.68 318.013C258.659 321.612 259.034 325.373 259.764 329.206C259.941 330.113 260.543 330.956 261.224 331.289C262.286 331.806 263.051 330.871 262.782 329.468C262.137 326.075 261.819 322.745 261.84 319.564Z" fill="white"/>
<path d="M263.852 308.03C263.391 307.804 262.917 307.832 262.577 308.151C261.981 308.711 262.031 310 262.541 311.176C263.568 313.521 264.171 316.057 264.156 318.48L264.142 320.69C264.128 323.269 264.355 325.933 264.801 328.646C264.964 329.645 265.637 330.602 266.388 330.97C267.543 331.53 268.358 330.538 268.124 329.036C267.762 326.769 267.585 324.53 267.599 322.377L267.614 320.166C267.635 316.56 266.664 312.756 265.021 309.306C264.723 308.682 264.298 308.25 263.859 308.03H263.852Z" fill="white"/>
<path d="M273.366 322.972C273.43 310.411 265.248 296.214 255.074 291.247C249.478 288.52 244.455 289.15 241.054 292.367C240.431 292.948 240.509 294.343 241.224 295.463C241.55 295.966 241.947 296.327 242.343 296.518C242.832 296.752 243.314 296.738 243.654 296.412C246.424 293.812 250.505 293.295 255.046 295.512C263.313 299.543 269.966 311.084 269.909 321.293L269.888 324.849C269.888 326.032 270.646 327.357 271.602 327.824C272.559 328.292 273.331 327.718 273.338 326.535L273.359 322.979L273.366 322.972Z" fill="white"/>
<path d="M245.999 318.551C245.801 316.227 245.709 313.946 245.723 311.708L245.737 309.497C245.772 303.213 249.924 300.139 255.011 302.618C255.846 303.022 256.647 303.553 257.412 304.177C257.618 304.347 257.823 304.481 258.029 304.581C258.602 304.857 259.155 304.864 259.53 304.503C260.288 303.787 260.048 302.002 258.957 301.024C257.724 299.919 256.399 299.012 255.039 298.346C248.039 294.932 242.329 299.168 242.287 307.804L242.273 310.021C242.258 312.487 242.372 314.995 242.591 317.545C242.684 318.629 243.413 319.756 244.256 320.166C245.319 320.684 246.127 319.897 246.006 318.544L245.999 318.551Z" fill="white"/>
</g>
<defs>
<linearGradient id="paint0_linear_45_1775" x1="310.296" y1="172.301" x2="85.3192" y2="171.204" gradientUnits="userSpaceOnUse">
<stop stop-color="#DDDFE3"/>
<stop offset="1" stop-color="#BABFCA"/>
</linearGradient>
<linearGradient id="paint1_linear_45_1775" x1="317.105" y1="234.636" x2="305.564" y2="234.58" gradientUnits="userSpaceOnUse">
<stop stop-color="#DDDFE3"/>
<stop offset="1" stop-color="#BABFCA"/>
</linearGradient>
<linearGradient id="paint2_linear_45_1775" x1="310.776" y1="85.1418" x2="86.1243" y2="84.0464" gradientUnits="userSpaceOnUse">
<stop stop-color="#BABFCA"/>
<stop offset="1" stop-color="#A8AFBD"/>
</linearGradient>
<linearGradient id="paint3_linear_45_1775" x1="137.685" y1="10.3612" x2="432.109" y2="260.996" gradientUnits="userSpaceOnUse">
<stop stop-color="#BABFCA"/>
<stop offset="1" stop-color="#A8AFBD"/>
</linearGradient>
<linearGradient id="paint4_linear_45_1775" x1="43.9847" y1="186.943" x2="647.905" y2="166.113" gradientUnits="userSpaceOnUse">
<stop stop-color="#BABFCA"/>
<stop offset="0.21" stop-color="#BABFCA" stop-opacity="0.69"/>
<stop offset="0.43" stop-color="#BABFCA" stop-opacity="0.4"/>
<stop offset="0.62" stop-color="#BABFCA" stop-opacity="0.18"/>
<stop offset="0.77" stop-color="#BABFCA" stop-opacity="0.05"/>
<stop offset="0.86" stop-color="#BABFCA" stop-opacity="0"/>
</linearGradient>
<linearGradient id="paint5_linear_45_1775" x1="166.521" y1="134.173" x2="105.375" y2="742.998" gradientUnits="userSpaceOnUse">
<stop stop-color="#DDDFE3"/>
<stop offset="1" stop-color="#BABFCA"/>
</linearGradient>
<linearGradient id="paint6_linear_45_1775" x1="339.183" y1="177.65" x2="229.459" y2="353.345" gradientUnits="userSpaceOnUse">
<stop stop-color="#DCDEE2"/>
<stop offset="1" stop-color="#BABEC8"/>
</linearGradient>
<linearGradient id="paint7_linear_45_1775" x1="283.634" y1="102.222" x2="39.2692" y2="101.032" gradientUnits="userSpaceOnUse">
<stop stop-color="#BABEC8"/>
<stop offset="1" stop-color="#A8AEBB"/>
</linearGradient>
<linearGradient id="paint8_linear_45_1775" x1="95.3572" y1="20.8781" x2="415.611" y2="293.496" gradientUnits="userSpaceOnUse">
<stop stop-color="#BABEC8"/>
<stop offset="1" stop-color="#A8AEBB"/>
</linearGradient>
<linearGradient id="paint9_linear_45_1775" x1="-1.43129" y1="212.789" x2="642.526" y2="190.58" gradientUnits="userSpaceOnUse">
<stop stop-color="#BABEC8"/>
<stop offset="0.21" stop-color="#BABEC8" stop-opacity="0.69"/>
<stop offset="0.43" stop-color="#BABEC8" stop-opacity="0.4"/>
<stop offset="0.62" stop-color="#BABEC8" stop-opacity="0.18"/>
<stop offset="0.77" stop-color="#BABEC8" stop-opacity="0.05"/>
<stop offset="0.86" stop-color="#BABEC8" stop-opacity="0"/>
</linearGradient>
<linearGradient id="paint10_linear_45_1775" x1="309.471" y1="322.4" x2="144.757" y2="227.908" gradientUnits="userSpaceOnUse">
<stop stop-color="#BABEC8"/>
<stop offset="0.21" stop-color="#BABEC8" stop-opacity="0.69"/>
<stop offset="0.43" stop-color="#BABEC8" stop-opacity="0.4"/>
<stop offset="0.62" stop-color="#BABEC8" stop-opacity="0.18"/>
<stop offset="0.77" stop-color="#BABEC8" stop-opacity="0.05"/>
<stop offset="0.86" stop-color="#BABEC8" stop-opacity="0"/>
</linearGradient>
<linearGradient id="paint11_linear_45_1775" x1="3.03227" y1="97.231" x2="73.7707" y2="97.5781" gradientUnits="userSpaceOnUse">
<stop stop-color="#BABEC8"/>
<stop offset="1" stop-color="#A8AEBB"/>
</linearGradient>
<linearGradient id="paint12_linear_45_1775" x1="75.7614" y1="75.5806" x2="-6.78687" y2="122.933" gradientUnits="userSpaceOnUse">
<stop stop-color="#DCDEE2"/>
<stop offset="1" stop-color="#BABEC8"/>
</linearGradient>
<linearGradient id="paint13_linear_45_1775" x1="139.659" y1="137.163" x2="59.0127" y2="142.279" gradientUnits="userSpaceOnUse">
<stop stop-color="#00C5F0"/>
<stop offset="1" stop-color="#009BE5"/>
</linearGradient>
<linearGradient id="paint14_linear_45_1775" x1="191.118" y1="231.708" x2="57.9122" y2="233.256" gradientUnits="userSpaceOnUse">
<stop stop-color="#009BE5"/>
<stop offset="1" stop-color="#00C5F0"/>
</linearGradient>
<linearGradient id="paint15_linear_45_1775" x1="171.175" y1="232.232" x2="77.7912" y2="233.317" gradientUnits="userSpaceOnUse">
<stop stop-color="#00C5F0"/>
<stop offset="1" stop-color="#009BE5"/>
</linearGradient>
<linearGradient id="paint16_linear_45_1775" x1="205.402" y1="175.262" x2="124.846" y2="176.822" gradientUnits="userSpaceOnUse">
<stop stop-color="#00C5F0"/>
<stop offset="1" stop-color="#009BE5"/>
</linearGradient>
<linearGradient id="paint17_linear_45_1775" x1="255.607" y1="259.136" x2="200.377" y2="262.607" gradientUnits="userSpaceOnUse">
<stop stop-color="#66BFE7"/>
<stop offset="1" stop-color="#4396D9"/>
</linearGradient>
<linearGradient id="paint18_linear_45_1775" x1="205.278" y1="262.386" x2="171.305" y2="262.552" gradientUnits="userSpaceOnUse">
<stop stop-color="#00C5F0"/>
<stop offset="1" stop-color="#009BE5"/>
</linearGradient>
<linearGradient id="paint19_linear_45_1775" x1="427.579" y1="470.916" x2="193.895" y2="209.353" gradientUnits="userSpaceOnUse">
<stop stop-color="#C1E6F6"/>
<stop offset="1" stop-color="#5ABCE8"/>
</linearGradient>
<linearGradient id="paint20_linear_45_1775" x1="258.755" y1="253.629" x2="258.755" y2="366.229" gradientUnits="userSpaceOnUse">
<stop stop-color="#C1E6F6"/>
<stop offset="1" stop-color="#5ABCE8"/>
</linearGradient>
<clipPath id="clip0_45_1775">
<rect width="318.337" height="367" fill="white" transform="matrix(-1 0 0 1 319 0)"/>
</clipPath>
</defs>
</svg>
